<?xml version="1.0" encoding="utf-8"?>
<!-- Generator: Adobe Illustrator 24.2.1, SVG Export Plug-In . SVG Version: 6.00 Build 0)  -->
<svg version="1.1" id="Capa_1" xmlns="http://www.w3.org/2000/svg" xmlns:xlink="http://www.w3.org/1999/xlink" x="0px" y="0px"
	 viewBox="0 0 3000 3000" style="enable-background:new 0 0 3000 3000;" xml:space="preserve">
<style type="text/css">
	.st0{opacity:0.95;fill:url(#SVGID_3_);}
	.st1{opacity:0.18;fill:#38BFF0;}
	.st2{fill:url(#SVGID_4_);}
	.st3{fill:#8E8E8D;}
	.st4{opacity:0.18;fill:url(#SVGID_5_);}
	.st5{opacity:0.18;fill:url(#SVGID_6_);}
	.st6{opacity:0.18;fill:url(#SVGID_7_);}
	.st7{opacity:0.18;fill:url(#SVGID_8_);}
	.st8{opacity:0.18;fill:url(#SVGID_9_);}
	.st9{fill:#38BFF0;}
	.st10{fill:#FFFFFF;}
	.st11{fill:#A2C0C9;}
	.st12{fill:#F0F1F1;}
	.st13{fill:#434344;}
	.st14{fill:#2C3D4D;}
	.st15{fill:#445F7E;}
	.st16{opacity:0.56;}
	.st17{fill:#A1D4F4;}
	.st18{fill:#9FD1E2;}
	.st19{fill:#8C6739;}
	.st20{opacity:0.18;}
	.st21{fill:#272626;}
	.st22{opacity:0.79;}
	.st23{fill:#CF6C65;}
	.st24{fill:#628348;}
	.st25{fill:#E8B13E;}
	.st26{fill:#BCD589;}
	.st27{fill:#D0D0D2;}
	.st28{opacity:0.83;}
	.st29{fill:#AFCD63;}
	.st30{fill:#EA9492;}
	.st31{fill:#F8AE2A;}
	.st32{opacity:0.48;}
	.st33{fill:#7796C8;}
	.st34{opacity:0.57;}
	.st35{fill:#D15350;}
	.st36{opacity:0.78;}
	.st37{fill:#F1E8DB;}
	.st38{fill:#676767;}
	.st39{fill:#4A4A4A;}
	.st40{opacity:0.74;}
	.st41{opacity:0.71;}
	.st42{opacity:0.68;}
	.st43{fill:#264194;}
	.st44{opacity:0.08;fill:#38BFF0;}
	.st45{opacity:0.18;fill:url(#SVGID_10_);}
	.st46{opacity:0.18;fill:url(#SVGID_11_);}
	.st47{fill:#1B2B65;}
	.st48{opacity:0.95;fill:url(#SVGID_14_);}
	.st49{opacity:0.86;fill:url(#SVGID_15_);}
	.st50{opacity:0.86;fill:url(#SVGID_16_);}
	.st51{opacity:0.86;fill:url(#SVGID_17_);}
	.st52{opacity:0.86;fill:url(#SVGID_18_);}
	.st53{fill:#345CA8;}
	.st54{fill:#202E55;}
	.st55{fill:none;}
	.st56{opacity:0.95;}
	.st57{fill:#EE778C;}
	.st58{fill:#E8576A;}
	.st59{fill:#E4053B;}
	.st60{fill:#E5083D;}
	.st61{fill:#A01C38;}
	.st62{fill:#791524;}
	.st63{fill:#E0103F;}
	.st64{fill:#E61D47;}
	.st65{opacity:0.45;}
	.st66{fill:url(#SVGID_19_);}
	.st67{fill:none;stroke:#202E55;stroke-miterlimit:10;}
	.st68{opacity:0.86;fill:url(#SVGID_20_);}
	.st69{opacity:0.95;fill:url(#SVGID_23_);}
	.st70{fill:url(#SVGID_26_);}
	.st71{fill:#FFE401;}
	.st72{fill:none;stroke:#FFFFFF;stroke-width:2;stroke-miterlimit:10;}
	.st73{opacity:0.86;fill:url(#SVGID_27_);}
	.st74{fill:#35363A;}
	.st75{fill:#1F2023;}
	.st76{opacity:0.95;fill:url(#SVGID_32_);}
</style>
<g class="st56">
	<g>
		<path class="st53" d="M1920.64,620.51c137.61,52.15,259.63,136.07,357.11,242.88l104.76-87.91
			c-112.84-124.96-254.75-223.05-415.08-283.53L1920.64,620.51z"/>
		<path class="st53" d="M2418.12,817.04l-104.72,87.87c57.22,70.58,104.32,149.64,139.04,235.07l128.59-46.8
			C2540.72,992.66,2485.48,899.75,2418.12,817.04z"/>
		<path class="st53" d="M1150.8,1315.96h81.42c10.09,0,19.44-6.9,21.06-16.85c2.06-12.69-7.68-23.66-19.98-23.66h-48.61
			c-10.1,0-19.76,4.18-26.68,11.54l-13.52,14.39C1139.31,1306.91,1143.22,1315.96,1150.8,1315.96z"/>
		<path class="st53" d="M2631.58,1257.46c-8.51-38.47-18.89-76.23-31.47-113.01l-128.43,46.74c3.35,9.9,6.47,19.9,9.47,29.95
			C2536.48,1238.35,2587.19,1249.7,2631.58,1257.46z"/>
		<path class="st53" d="M2750.41,1757.93c-2.66-15.98,127.83-266.31,50.6-394.14c-12.12-20.05-26.79-34.4-42.92-44.34
			c16.14-5.13,30.54-10.51,42.9-16.18c49.82-22.87-172.73,10.51-456.62-115.66c-283.88-126.17-459.62-117.16-714.22-117.16
			s-407.8,101.39-545.24,177.99c-137.44,76.6-2.25,51.82-434.84,101.39c-366.35,41.98-422.44,164.74-431.02,201.35l-2.6,1.69
			l1.55,3.63c-0.51,3.29-0.51,5.12-0.51,5.12s0.59-0.75,1.8-2.1l47.76,111.86l-31.68,14.4c-26.64,13.17-60.46,32.87-60.86,48.18
			c-0.43,16.46,20.25,75.7,34.77,115.13c12.6,30.01,21.16,55.49,17.38,62.41l-26.63,23.08v14.2h301.38
			c-29.98-44.8-47.49-98.65-47.49-156.6c0-155.7,126.22-281.92,281.92-281.92c117.79,0,218.66,72.27,260.82,174.86l61.78-194.39
			c0,0,23.97-58.59,90.55-62.14h662.67h421.95l-25.59,83.23c9.75-1.02,136.97-1.56,146.99-1.56c155.7,0,281.92,126.22,281.92,281.92
			c0,21.18-2.41,41.78-6.84,61.62h114.98l37.28-53.26C2782.37,1800.54,2753.08,1773.9,2750.41,1757.93z M1097.21,1329.95
			c-4.87,0.12-7.22-5.92-3.47-9.03c46.97-38.94,235.25-186.58,406.87-200.91c197.89-16.52,460.75-24.03,615.46,40.55
			c154.71,64.59,176.58,140.8,176.58,140.8L1097.21,1329.95z"/>
		<path class="st53" d="M1438.14,1464.91l139.14-0.2c97.32-0.14,126.15,39.99,99.68,121.89l-10.54,32.61
			c-17.65,54.6-48.56,89.51-95.29,104.74l-0.49,1.52c42.78,12.82,45.41,52.24,26.04,112.14l-30.15,93.28
			c-8.33,25.78-13.61,44.74-10.59,64.44l-95.61,0.14c-0.71-13.64-1.43-21.98,12.54-65.21l31.37-97.06
			c15.93-49.29,4.86-65.19-37.82-65.13l-32.44,0.05l-73.53,227.5l-93.9,0.13L1438.14,1464.91z M1492.66,1692.23
			c35-0.05,60.75-13.73,74.48-56.2l13.24-40.95c12.26-37.92,3.14-54.58-30.16-54.53l-42.68,0.06l-49.02,151.67L1492.66,1692.23z"/>
		<path class="st53" d="M1799.23,1464.39l134.02-0.19l-63.05,379.84l1.71,0l182.56-380.01l134.02-0.19l-171.58,530.83l-88.78,0.13
			l129.91-401.91l-1.71,0l-198.2,402.01l-78.53,0.11l61.62-401.82l-1.71,0L1709.6,1995.1l-81.95,0.12L1799.23,1464.39z"/>
		<path class="st53" d="M990.84,1867.81l89.71-277.54c25.77-79.72,87.57-127.03,175.64-127.15c88.08-0.13,119.34,47.05,93.57,126.77
			l-17.66,54.62l-86.41,0.12l19.33-59.79c10.97-33.96-2.77-47.95-30.2-47.91c-27.42,0.04-50.23,14.09-61.21,48.04l-93.29,288.61
			c-10.98,33.95,3.01,47.22,30.43,47.18c27.42-0.04,50-13.35,60.97-47.31l25.53-78.98l86.41-0.12l-23.62,73.08
			c-25.77,79.72-87.57,127.03-175.65,127.15C996.34,1994.7,965.08,1947.53,990.84,1867.81z"/>
		<path class="st53" d="M648.18,1333.15c10.79-1.24,21.1-2.41,31.2-3.56c75.45-436.2,456.28-769.07,913.71-769.07
			c96.06,0,188.7,14.78,275.88,42.01l46.8-128.59c-101.84-32.49-210.2-50.23-322.68-50.23c-539.99,0-986.93,404.28-1055.01,926
			C571.43,1343.37,607.92,1337.76,648.18,1333.15z"/>
		<path class="st53" d="M710.01,1547.08c-123.35,0-223.7,100.35-223.7,223.7c0,123.02,99.82,223.14,222.71,223.67v-47.42
			c-96.74-0.53-175.29-79.38-175.29-176.25c0-97.2,79.08-176.28,176.28-176.28s176.28,79.08,176.28,176.28
			c0,37.83-12.02,72.89-32.39,101.63l40.4,24.97c24.83-36.03,39.41-79.64,39.41-126.6C933.71,1647.43,833.35,1547.08,710.01,1547.08
			z"/>
		<rect x="704.84" y="1946.94" class="st53" width="387.07" height="47.34"/>
		<path class="st53" d="M2361.33,1547.08c123.35,0,223.7,100.35,223.7,223.7c0,123.02-99.82,223.14-222.71,223.67v-47.42
			c96.74-0.53,175.29-79.38,175.29-176.25c0-97.2-79.08-176.28-176.28-176.28c-97.2,0-176.28,79.08-176.28,176.28
			c0,37.83,12.02,72.89,32.39,101.63l-40.4,24.97c-24.83-36.03-39.41-79.64-39.41-126.6
			C2137.63,1647.43,2237.98,1547.08,2361.33,1547.08z"/>
		
			<rect x="1979.42" y="1946.94" transform="matrix(-1 -4.490021e-11 4.490021e-11 -1 4345.9199 3941.2231)" class="st53" width="387.07" height="47.34"/>
	</g>
	<g>
		<circle class="st55" cx="1594.84" cy="1501.39" r="1074.65"/>
		<path class="st53" d="M832.33,2102.67l7.04,8.45l-72.61,60.47l37.27,44.75l-7.31,6.08l-44.3-53.2L832.33,2102.67z"/>
		<path class="st53" d="M841.82,2195.65c21.18-21.68,53.54-21.64,76.07,0.37c22.32,21.8,23.33,54.15,2.05,75.94
			c-21.28,21.79-53.64,21.54-75.96-0.26C821.45,2249.68,820.65,2217.33,841.82,2195.65z M912.07,2264.27
			c17.34-17.75,16.82-43.8-1.03-61.24c-17.96-17.54-44.12-17.55-61.46,0.2c-17.34,17.75-16.72,43.9,1.25,61.45
			C868.68,2282.11,894.74,2282.02,912.07,2264.27z"/>
		<path class="st53" d="M956.54,2366.94l1.94-56.73l-54.58,15.27l-9.92-7.81l64.14-17.57l2.19-62.58l9.92,7.81l-1.67,52.78
			l50.8-14.08l9.34,7.35l-60.02,16.65l-2.11,66.8L956.54,2366.94z"/>
		<path class="st53" d="M1053.83,2398.42l-48.78-31.28l-25.5,16.65l-9.63-6.18l96.16-61.89l9.13,5.85l-16.12,113.22l-9.76-6.26
			L1053.83,2398.42z M1055.26,2388.75l9.14-60.5l-51.17,33.56L1055.26,2388.75z"/>
		<path class="st53" d="M1132.79,2366.31l-18.51,36.42l47.95,24.37l-4.31,8.48l-47.95-24.37l-19.99,39.34l-9.8-4.98l47.12-92.71
			l63.58,32.31l-4.31,8.48L1132.79,2366.31z"/>
		<path class="st53" d="M1236.68,2515.26l-10.07-39.77c-2.6-0.69-5.15-1.52-7.92-2.59l-26.04-10.11l-11.93,30.75l-10.25-3.98
			l37.63-96.96l36.29,14.08c24.65,9.57,34.78,27.84,26.71,48.62c-5.91,15.24-18.09,22.78-33.99,21.87l10.78,42.44L1236.68,2515.26z
			 M1260.86,2451.33c6.02-15.51-0.79-28.36-20.18-35.88l-25.76-10l-18.87,48.62l25.76,10
			C1241.2,2471.59,1254.94,2466.57,1260.86,2451.33z"/>
		<path class="st53" d="M1350.86,2539l-2.52,9.17l-70.9-19.53l27.62-100.26l68.75,18.94l-2.52,9.17l-58.15-16.02l-9.82,35.67
			l51.85,14.28l-2.49,9.02l-51.85-14.28l-10.26,37.24L1350.86,2539z"/>
		<path class="st53" d="M1453.79,2558.04l-1.63,9.37l-72.46-12.59l17.8-102.46l70.26,12.21l-1.63,9.37l-59.43-10.33l-6.33,36.45
			l52.99,9.21l-1.6,9.22l-52.99-9.21l-6.61,38.06L1453.79,2558.04z"/>
		<path class="st53" d="M1557.38,2524.61c-0.22-30.46,22.79-53.06,54.13-53.29c15.15-0.11,28.86,4.84,38.15,14.87l-6.93,7.03
			c-8.53-8.55-18.96-12.19-30.84-12.1c-25.11,0.18-43.84,18.75-43.66,43.41c0.18,24.66,19.18,42.95,44.29,42.76
			c11.89-0.09,22.26-3.88,30.66-12.71l7.03,6.93c-9.14,10.17-22.77,15.47-38.07,15.58
			C1580.94,2577.33,1557.6,2555.07,1557.38,2524.61z"/>
		<path class="st53" d="M1739.46,2538.92l-57.59,6.42l-9.32,29l-11.37,1.27l35.72-108.63l10.78-1.2l58.78,98.09l-11.52,1.28
			L1739.46,2538.92z M1734.49,2530.51l-31-52.75l-18.61,58.29L1734.49,2530.51z"/>
		<path class="st53" d="M1859.45,2543.75l-30.43-27.51c-2.55,0.87-5.13,1.59-8.03,2.23l-27.27,6.03l7.12,32.21l-10.74,2.37
			l-22.44-101.55l38.01-8.4c25.82-5.71,44.38,3.89,49.19,25.65c3.53,15.96-2.42,28.99-16.16,37.05l32.5,29.34L1859.45,2543.75z
			 M1844.12,2477.14c-3.59-16.25-16.38-23.16-36.69-18.67l-26.98,5.96l11.25,50.92l26.98-5.96
			C1838.99,2504.9,1847.64,2493.1,1844.12,2477.14z"/>
		<path class="st53" d="M1903.51,2422.88l39.48-15.31c31.03-12.03,59.68-0.2,70.75,28.34c11.07,28.54-2.12,56.6-33.15,68.63
			l-39.48,15.31L1903.51,2422.88z M1976.6,2495.88c25.77-9.99,36.05-32.78,27.03-56.06c-9.03-23.27-31.99-33.17-57.75-23.18
			l-28.67,11.12l30.73,79.24L1976.6,2495.88z"/>
		<path class="st53" d="M2121.83,2427.95l4.38,8.44l-65.26,33.91l-47.95-92.29l63.28-32.88l4.38,8.44l-53.53,27.81l17.06,32.83
			l47.73-24.8l4.32,8.31l-47.72,24.8l17.81,34.28L2121.83,2427.95z"/>
		<path class="st53" d="M2193.33,2360.84l-48.45,31.77l4.8,30.08l-9.57,6.27l-17.27-113.04l9.07-5.95l96.79,60.9l-9.69,6.35
			L2193.33,2360.84z M2185.08,2355.59l-51.5-33.03l9.76,60.4L2185.08,2355.59z"/>
		<path class="st53" d="M2181.81,2275l8.58-6.88l59.11,73.72l45.44-36.43l5.95,7.42l-54.02,43.31L2181.81,2275z"/>
		<path class="st53" d="M2365.04,2238.58l6.61,6.84l-52.9,51.09l-72.25-74.81l51.3-49.54l6.61,6.84l-43.39,41.91l25.7,26.61
			l38.69-37.36l6.5,6.73l-38.69,37.36l26.84,27.79L2365.04,2238.58z"/>
		<path class="st53" d="M2439.41,2167.27l-40.88-3.37c-1.5,2.24-3.11,4.38-5.02,6.65l-18,21.36l25.22,21.26l-7.08,8.41l-79.53-67.02
			l25.08-29.77c17.04-20.22,37.61-23.88,54.65-9.51c12.5,10.53,15.69,24.49,9.67,39.24l43.64,3.55L2439.41,2167.27z
			 M2386.77,2123.68c-12.72-10.72-27.08-8.44-40.48,7.46l-17.81,21.13l39.88,33.61l17.81-21.13
			C2399.56,2148.84,2399.26,2134.21,2386.77,2123.68z"/>
	</g>
</g>
</svg>
