<svg id="Layer_1" data-name="Layer 1" xmlns="http://www.w3.org/2000/svg" viewBox="0 0 636.1 140.4"><defs><style>.cls-1{fill:#fff;}.cls-2{fill:#b2b4b6;}.cls-3{fill:#f9d71a;}.cls-4{fill:#89ade2;}.cls-5{fill:#8cbf1d;}.cls-6{fill:#cf000c;}.cls-7{fill:#f4f4f4;}.cls-8{fill:none;stroke:#000;stroke-linecap:round;stroke-miterlimit:10;stroke-width:3px;}.cls-9{fill:#fdfdfc;}.cls-10{fill:#cbb082;}.cls-11{fill:#b78b56;}.cls-12{fill:#fdfdfd;}.cls-13{fill:#ba834c;}.cls-14{fill:#bcbbbb;}.cls-15{fill:#e2e0e0;}.cls-16{fill:#666;}.cls-17{fill:#f2f0f0;}.cls-18{fill:#206d33;}.cls-19{fill:#0f6322;}</style></defs><title>Flor-logo-horizon</title><rect class="cls-1" width="636.1" height="140.4"/><path class="cls-2" d="M180.4,72.78c0-1,.08-2.08.08-3.13s0-2.1-.08-3.14l-4.15-2.4A56.64,56.64,0,0,0,174.05,53L177,49.21c-.35-1-.73-2-1.13-2.92s-.83-1.93-1.28-2.87l-4.72-.62a56.68,56.68,0,0,0-6.27-9.39l1.23-4.6c-.7-.77-1.42-1.52-2.16-2.27s-1.5-1.46-2.28-2.16l-4.57,1.22a56.83,56.83,0,0,0-9.48-6.35l-.62-4.66c-.94-.45-1.89-.87-2.86-1.28s-1.95-.77-2.93-1.12L136.17,15A56.39,56.39,0,0,0,125,12.82l-2.35-4.05c-1-.06-2.08-.08-3.13-.08s-2.1,0-3.13.08l-2.34,4A56.38,56.38,0,0,0,102.75,15l-3.67-2.81c-1,.35-2,.73-2.92,1.13s-1.93.83-2.87,1.28l-.6,4.55a57.89,57.89,0,0,0-9.58,6.39l-4.42-1.18q-1.16,1.05-2.28,2.16c-.74.75-1.46,1.5-2.16,2.27l1.18,4.42A57.49,57.49,0,0,0,69,42.89l-4.51.6c-.45.94-.87,1.89-1.27,2.86s-.78,1.95-1.13,2.93l2.77,3.61a57.37,57.37,0,0,0-2.24,11.34l-4,2.28c0,1-.08,2.09-.08,3.14s0,2.09.08,3.13l4,2.29a57.27,57.27,0,0,0,2.26,11.4l-2.76,3.61c.34,1,.72,2,1.12,2.93s.83,1.93,1.28,2.86l4.52.6a57.08,57.08,0,0,0,6.43,9.58l-1.19,4.43c.7.77,1.42,1.53,2.16,2.27s1.51,1.47,2.28,2.16l4.45-1.18a56.76,56.76,0,0,0,9.61,6.4l.61,4.58c.94.45,1.89.87,2.86,1.27s2,.78,2.93,1.13l3.69-2.83a56.65,56.65,0,0,0,11.2,2.19l2.35,4.06c1,.05,2.08.08,3.13.08s2.1,0,3.13-.08l2.36-4.08a56.69,56.69,0,0,0,11.2-2.23l3.75,2.86c1-.35,1.95-.72,2.92-1.12s1.93-.83,2.87-1.28l.62-4.69a57.9,57.9,0,0,0,9.39-6.3l4.59,1.22c.78-.69,1.53-1.41,2.28-2.16s1.46-1.5,2.16-2.27l-1.23-4.61a57.33,57.33,0,0,0,6.29-9.43l4.73-.63c.45-.94.87-1.89,1.27-2.87S176.63,91,177,90l-2.91-3.8a56.54,56.54,0,0,0,2.17-11Z"/><circle class="cls-2" cx="119.42" cy="69.64" r="45.7"/><circle class="cls-1" cx="119.43" cy="69.61" r="45.7"/><path class="cls-3" d="M73.81,66.73H165a45.71,45.71,0,0,0-91.23,0Z"/><rect class="cls-4" x="93.94" y="47.97" width="49.49" height="18.76"/><path class="cls-5" d="M79.68,92.21a45.73,45.73,0,0,0,79.49,0Z"/><path d="M119.43,115.41A45.82,45.82,0,1,1,151.85,102,45.58,45.58,0,0,1,119.43,115.41Zm0-91.41a45.55,45.55,0,1,0,32.22,13.34A45.27,45.27,0,0,0,119.43,24Z"/><path class="cls-6" d="M73.82,69.61a45.48,45.48,0,0,0,5,20.76h81.46a45.49,45.49,0,0,0,5-20.76c0-.32,0-.64,0-1H73.83C73.82,69,73.82,69.29,73.82,69.61Z"/><path d="M119.43,115.45A45.82,45.82,0,1,1,151.85,102,45.54,45.54,0,0,1,119.43,115.45Zm0-91.41a45.55,45.55,0,1,0,32.22,13.34A45.27,45.27,0,0,0,119.43,24Z"/><path d="M127,94.45H110.35A16.56,16.56,0,0,1,93.8,77.9V47.84h49.77V77.9A16.56,16.56,0,0,1,127,94.45ZM94.08,48.11V77.9a16.28,16.28,0,0,0,16.27,16.27H127A16.28,16.28,0,0,0,143.29,77.9V48.11Z"/><path class="cls-7" d="M129.07,41.87a1.42,1.42,0,0,0,.33-1.52,2.08,2.08,0,0,0-.38-.49l-1.66-1.66L124,34.86H119.9l-.56.56a2.2,2.2,0,0,1-3.13,0,1.09,1.09,0,0,1-.32-.77,1.11,1.11,0,0,1,.32-.77l2.32-2.31H116.3a2.39,2.39,0,0,0-1.69.7l-.88.88a2.39,2.39,0,0,1-1.69.7h-8l0,7.74h7.58a1.33,1.33,0,0,0,.33.63,1.2,1.2,0,0,0,1.55.12l.14-.11-.12.12-.06,0a1.24,1.24,0,0,0-.35.85,1.21,1.21,0,0,0,2.06.85l.38-.38a1.2,1.2,0,0,0-.33.83,1.24,1.24,0,0,0,.35.85,1.2,1.2,0,0,0,1.7,0l.55-.55a1.2,1.2,0,0,0-.35.85,1.16,1.16,0,0,0,.35.85,1.2,1.2,0,0,0,1.7,0l.68-.68.07-.07.84.83A1.22,1.22,0,0,0,122,47a1.26,1.26,0,0,0,.92-2.11l0,0,0,0,.63.62a1.23,1.23,0,0,0,.89.37,1.26,1.26,0,0,0,.89-2.15l-.23-.24h0l.82.82a1.25,1.25,0,0,0,.89.37,1.26,1.26,0,0,0,.89-2.15l-.52-.53a1.4,1.4,0,0,0,.89.31A1.42,1.42,0,0,0,129.07,41.87Z"/><path class="cls-7" d="M137.18,41.62h-7.91a1.58,1.58,0,0,0,.26-.88,1.64,1.64,0,0,0-.51-.88l-1.66-1.66L124,34.86H119.9l-.56.56a2.2,2.2,0,0,1-3.13,0,1.09,1.09,0,0,1-.32-.77,1.11,1.11,0,0,1,.32-.77l2.32-2.31h5.86a2.39,2.39,0,0,1,1.69.7l.88.88a2.38,2.38,0,0,0,1.69.7h8.53"/><path d="M137.18,41.83h-8.3l.22-.33a1.24,1.24,0,0,0,.22-.75,1.3,1.3,0,0,0-.44-.74l-4.94-4.95h-4l-.5.51a2.44,2.44,0,0,1-3.43,0,1.33,1.33,0,0,1,0-1.84l2.38-2.37h6a2.57,2.57,0,0,1,1.83.76l.88.88a2.18,2.18,0,0,0,1.55.64h8.53a.2.2,0,0,1,.2.2.2.2,0,0,1-.2.21h-8.53a2.58,2.58,0,0,1-1.84-.76l-.88-.88a2.17,2.17,0,0,0-1.54-.64h-5.77L116.36,34a.88.88,0,0,0-.26.63.84.84,0,0,0,.26.62,2,2,0,0,0,1.42.59,2,2,0,0,0,1.42-.59l.62-.62h4.29l5,5.06a1.73,1.73,0,0,1,.57,1,1.61,1.61,0,0,1-.12.69h7.57a.21.21,0,0,1,0,.42Z"/><polygon points="118.33 32.05 118.32 31.36 118.54 31.35 119.03 31.35 118.33 32.05"/><path d="M112.78,42.76a1.41,1.41,0,0,1-1-2.4l1.87-1.87a1.41,1.41,0,0,1,2.4,1,1.43,1.43,0,0,1-.41,1h0l-1.87,1.87A1.43,1.43,0,0,1,112.78,42.76Zm1.87-4.27a1,1,0,0,0-.7.29l-1.87,1.87a1,1,0,0,0,0,1.41,1,1,0,0,0,1.41,0l1.87-1.87a1,1,0,0,0-.71-1.7Z"/><path d="M114.29,44.65a1.43,1.43,0,0,1-1-.41,1.41,1.41,0,0,1,0-2l2.06-2.06a1.41,1.41,0,0,1,2.4,1,1.43,1.43,0,0,1-.41,1l-2.06,2.06A1.43,1.43,0,0,1,114.29,44.65Zm2.06-4.46a1,1,0,0,0-.7.29l-2.06,2.06a1,1,0,0,0,0,1.41A1,1,0,0,0,115,44l2.06-2.06a1,1,0,0,0-.71-1.7Z"/><path d="M116.4,45.94a1.41,1.41,0,0,1-1-.41,1.39,1.39,0,0,1-.41-1,1.37,1.37,0,0,1,.41-1l1.42-1.43a1.43,1.43,0,0,1,1-.41,1.41,1.41,0,0,1,1,2.4l-1.42,1.43A1.43,1.43,0,0,1,116.4,45.94Zm1.43-3.83a1,1,0,0,0-.71.29l-1.42,1.43a1,1,0,0,0,1.41,1.41l1.42-1.43a1,1,0,0,0,0-1.41A1,1,0,0,0,117.83,42.11Zm.85,1.85Z"/><path d="M118.65,47.1a1.41,1.41,0,0,1-1-.42,1.39,1.39,0,0,1-.41-1,1.43,1.43,0,0,1,.41-1l.69-.68a1.41,1.41,0,0,1,2,0,1.43,1.43,0,0,1,.41,1,1.41,1.41,0,0,1-.41,1l-.69.68A1.37,1.37,0,0,1,118.65,47.1Zm.68-3.09a1,1,0,0,0-.7.29l-.69.68a1,1,0,0,0-.29.71,1,1,0,0,0,1.7.7l.69-.68a1,1,0,0,0-.71-1.7Z"/><path d="M128.06,42.49A1.64,1.64,0,0,1,126.9,42l-3.41-3.41a.19.19,0,0,1,0-.29.21.21,0,0,1,.29,0l3.41,3.41A1.23,1.23,0,0,0,128.93,40l-5-5a.21.21,0,0,1,.29-.29l5,5a1.64,1.64,0,0,1-1.16,2.8Z"/><path d="M126.8,44.86a1.46,1.46,0,0,1-1-.43l-3.89-3.89a.21.21,0,1,1,.29-.29l3.89,3.89a1.06,1.06,0,0,0,1.5,0,1.05,1.05,0,0,0,0-1.49l-4-4a.21.21,0,1,1,.29-.29l4,4a1.42,1.42,0,0,1,.43,1,1.44,1.44,0,0,1-.43,1A1.46,1.46,0,0,1,126.8,44.86Z"/><path d="M124.42,46.07a1.46,1.46,0,0,1-1-.43L119.76,42a.21.21,0,1,1,.29-.29l3.62,3.63a1.06,1.06,0,0,0,1.5,0,1.08,1.08,0,0,0,0-1.49l-3.3-3.3a.21.21,0,0,1,.29-.29l3.3,3.3a1.46,1.46,0,0,1,.43,1,1.48,1.48,0,0,1-.43,1A1.46,1.46,0,0,1,124.42,46.07Z"/><path d="M122,47.19a1.49,1.49,0,0,1-1-.42l-.84-.84a.21.21,0,0,1,.29-.29l.84.83a1.06,1.06,0,0,0,.75.31,1,1,0,0,0,.74-.31,1.06,1.06,0,0,0,0-1.49L119.78,42a.21.21,0,0,1,.29-.29L123,44.69a1.46,1.46,0,0,1-1,2.5Z"/><path d="M110.84,34h-6.78a.2.2,0,0,1-.21-.2.21.21,0,0,1,.21-.21h8a2.17,2.17,0,0,0,1.54-.64l.88-.88a2.6,2.6,0,0,1,1.84-.76h5.85a.21.21,0,1,1,0,.41H116.3a2.17,2.17,0,0,0-1.54.64l-.89.88A2.57,2.57,0,0,1,112,34Z"/><path class="cls-8" d="M111.61,41.57"/><path class="cls-2" d="M104,32.71H92.37a46.22,46.22,0,0,0-10,10.06H104Z"/><rect class="cls-7" x="104.04" y="31.63" width="6.06" height="12.23"/><rect class="cls-7" x="130.91" y="31.63" width="6.06" height="12.23" transform="translate(267.87 75.48) rotate(-180)"/><path d="M110.24,44H103.9V31.49h6.34Zm-6.07-.27H110v-12h-5.79Z"/><path d="M137.11,44h-6.34V31.49h6.34ZM131,43.72h5.79v-12H131Z"/><path class="cls-2" d="M137,42.77h19.49a46,46,0,0,0-10-10.06H137Z"/><rect class="cls-3" x="100.56" y="97.71" width="38" height="6.76"/><polygon class="cls-3" points="133 106.91 133 104.47 138.55 104.47 133 106.91"/><polygon class="cls-3" points="143.28 100.49 140.53 103.56 143.28 106.91 132.91 106.91 132.91 104.47 138.55 104.47 138.55 100.49 143.28 100.49"/><polygon class="cls-3" points="106.03 106.92 106.03 104.48 100.48 104.48 106.03 106.92"/><polygon class="cls-3" points="95.75 100.5 98.49 103.56 95.75 106.92 106.12 106.92 106.12 104.48 100.48 104.48 100.48 100.5 95.75 100.5"/><path d="M143.57,68.63H93.8V63.81l.07,0a4.07,4.07,0,0,1,.86-.32,5,5,0,0,1,1.06-.14l.48,0a23.77,23.77,0,0,0,3.23-.58,24,24,0,0,0,6.18-2.48l.28-.16A5.93,5.93,0,0,1,109.08,59l.3,0a2,2,0,0,0,.73,0,2.12,2.12,0,0,0,1-.8v0a26.38,26.38,0,0,1,3.47-3.46,1.74,1.74,0,0,1,.83-.45,1.71,1.71,0,0,1,.6,0,2.73,2.73,0,0,0,.38,0h0a2.4,2.4,0,0,0,1.12-.41,3.73,3.73,0,0,1,.91-.41,3.48,3.48,0,0,1,2,.33,4.51,4.51,0,0,0,1.49.39l.48,0a4,4,0,0,1,.6,0,4.06,4.06,0,0,1,2.26,1.25l.13.12a25.83,25.83,0,0,0,9.27,4.87,66.85,66.85,0,0,0,8.76,1.91l.12,0Zm-49.5-.27h49.22V62.53a67,67,0,0,1-8.68-1.9h0a25.85,25.85,0,0,1-9.37-4.93l-.13-.11A3.87,3.87,0,0,0,123,54.4a5.33,5.33,0,0,0-.56,0,4.24,4.24,0,0,1-.51,0,4.9,4.9,0,0,1-1.58-.4,3.19,3.19,0,0,0-1.88-.33,3.25,3.25,0,0,0-.85.39,2.58,2.58,0,0,1-1.26.44,3,3,0,0,1-.42,0,1.53,1.53,0,0,0-.52,0,1.64,1.64,0,0,0-.7.39,25.27,25.27,0,0,0-3.43,3.43,2.41,2.41,0,0,1-1.11.91,2.58,2.58,0,0,1-.83,0l-.29,0a5.76,5.76,0,0,0-3,1.08l-.28.16A24.36,24.36,0,0,1,99.57,63a24.63,24.63,0,0,1-3.27.58l-.49,0a5.58,5.58,0,0,0-1,.13,4.89,4.89,0,0,0-.73.26Z"/><path class="cls-9" d="M106.48,60.94a1.15,1.15,0,0,1,.25,1.16c-.09.26-.26.52-.17.78a.65.65,0,0,0,.29.3,2.29,2.29,0,0,0,2.13-.35l1.77-1a4.3,4.3,0,0,0,1.29-.93,1.46,1.46,0,0,0,.28-1.5c-.16-.32-.5-.61-.45-1a1,1,0,0,1,.33-.53,10,10,0,0,1,3.32-2.15.52.52,0,0,1,.5,0,.43.43,0,0,1,.13.28c.08.88-1.05,1.31-1.5,2.06a.36.36,0,0,0-.07.26c.07.4.9,0,1,.43a12.39,12.39,0,0,1-1.23.93,1.69,1.69,0,0,0-.75,1.29,1.42,1.42,0,0,0,1.2,1.23,3.38,3.38,0,0,0,1.82-.28,1,1,0,0,0,.43-.26c.29-.35,0-.87-.14-1.28a1.55,1.55,0,0,1-.13-1,.77.77,0,0,1,.78-.57c.83.13.72,1.76,1.57,1.82.32,0,.64-.22,1-.11s.38.64.28,1-.23.83,0,1.11a1,1,0,0,0,.41.23c.54.19,1.21.36,1.62,0s.2-1.39.61-2a4.29,4.29,0,0,1,.85-.66,1.59,1.59,0,0,0,.32-2l1.94.87c.73.32,1.57.81,1.59,1.62,0,.38-.19.77,0,1.12a1.2,1.2,0,0,0,.46.46,6,6,0,0,0,2.29,1.14.76.76,0,0,0,.66-.11c.35-.32,0-.89-.38-1.19s-.82-.75-.58-1.17l3.27,1.87c.5.28,1.22.53,1.56.07s0-.91-.22-1.3a6.11,6.11,0,0,0,5,.15c-1.73-.35-3.45-.75-5.14-1.27a25.68,25.68,0,0,1-9.32-4.9A4.23,4.23,0,0,0,123,54.27c-.36,0-.72,0-1.07,0-1.21,0-2.33-1-3.5-.72-.73.18-1.33.83-2.08.83a6.22,6.22,0,0,0-1-.08,1.74,1.74,0,0,0-.77.43,25.41,25.41,0,0,0-3.44,3.44,2.38,2.38,0,0,1-1,.87,3.84,3.84,0,0,1-1.07,0,6.54,6.54,0,0,0-3.33,1.26c-.29.17-.59.33-.88.48C105.44,60.76,106,60.47,106.48,60.94Z"/><path class="cls-10" d="M139.79,61.77a6.11,6.11,0,0,1-5-.15c.25.39.5.92.22,1.3s-1.06.21-1.56-.07L130.19,61c-.24.42.2.87.58,1.17s.73.87.38,1.19a.76.76,0,0,1-.66.11,6,6,0,0,1-2.29-1.14,1.2,1.2,0,0,1-.46-.46c-.16-.35,0-.74,0-1.12,0-.81-.86-1.3-1.59-1.62l-1.94-.87a1.59,1.59,0,0,1-.32,2,4.29,4.29,0,0,0-.85.66c-.41.57-.1,1.48-.61,2s-1.08.22-1.62,0a1,1,0,0,1-.41-.23c-.27-.28-.14-.73,0-1.11s.08-.89-.28-1-.63.14-1,.11c-.85-.06-.74-1.69-1.57-1.82a.77.77,0,0,0-.78.57,1.55,1.55,0,0,0,.13,1c.18.41.43.93.14,1.28a1,1,0,0,1-.43.26,3.38,3.38,0,0,1-1.82.28,1.42,1.42,0,0,1-1.2-1.23,1.69,1.69,0,0,1,.75-1.29,12.39,12.39,0,0,0,1.23-.93c-.13-.39-1,0-1-.43a.36.36,0,0,1,.07-.26c.45-.75,1.58-1.18,1.5-2.06a.43.43,0,0,0-.13-.28.52.52,0,0,0-.5,0,10,10,0,0,0-3.32,2.15,1,1,0,0,0-.33.53c-.05.36.29.65.45,1a1.46,1.46,0,0,1-.28,1.5,4.3,4.3,0,0,1-1.29.93l-1.77,1a2.29,2.29,0,0,1-2.13.35.65.65,0,0,1-.29-.3c-.09-.26.08-.52.17-.78a1.15,1.15,0,0,0-.25-1.16c-.46-.47-1-.18-1.61-.12a24.37,24.37,0,0,1-5.33,2,23.9,23.9,0,0,1-3.26.57,10.92,10.92,0,0,0-1.51.18,3.94,3.94,0,0,0-.83.31v4.6h49.49V62.42C142.22,62.22,141,62,139.79,61.77Z"/><path d="M119.52,130.75c-1,0-2.1,0-3.14-.08h-.08L114,126.6a56.47,56.47,0,0,1-11.1-2.17l-3.68,2.83-.08,0c-1-.35-2-.73-2.93-1.13s-1.93-.83-2.87-1.27l-.07,0-.61-4.58a58.16,58.16,0,0,1-9.52-6.34l-4.45,1.19-.06,0c-.77-.7-1.53-1.43-2.27-2.17s-1.47-1.5-2.17-2.28l-.05,0,1.19-4.44a57.31,57.31,0,0,1-6.36-9.48L64.4,96l0-.07c-.44-.94-.87-1.9-1.27-2.87s-.78-2-1.13-2.93l0-.07,2.77-3.62a57.59,57.59,0,0,1-2.24-11.29l-4-2.29v-.07c0-1-.08-2.1-.08-3.14s0-2.1.08-3.14v-.08l4-2.28a57.21,57.21,0,0,1,2.22-11.24L61.91,49.3l0-.07c.35-1,.73-2,1.13-2.93s.83-1.93,1.27-2.87l0-.07,4.51-.6a57.36,57.36,0,0,1,6.4-9.56L74.1,28.78l.05-.06c.7-.77,1.43-1.54,2.17-2.27s1.5-1.47,2.27-2.17l.06-.05,4.43,1.18a58.06,58.06,0,0,1,9.49-6.33l.6-4.56.07,0c.94-.45,1.9-.88,2.87-1.28s2-.78,2.93-1.13l.07,0,3.67,2.81A57.27,57.27,0,0,1,114,12.67l2.33-4h.08a59.8,59.8,0,0,1,6.28,0h.08l2.34,4.06a57.62,57.62,0,0,1,11.06,2.2L139.87,12l.07,0c1,.35,2,.73,2.93,1.13s1.93.82,2.87,1.27l.07,0,.62,4.67a57.55,57.55,0,0,1,9.38,6.29l4.58-1.22.06.05c.77.7,1.54,1.43,2.27,2.17s1.47,1.5,2.17,2.27l.05.06-1.23,4.59a57.72,57.72,0,0,1,6.21,9.3l4.72.63,0,.06c.44.94.87,1.91,1.27,2.87s.78,2,1.13,2.94l0,.07L174.21,53a58.52,58.52,0,0,1,2.17,11l4.16,2.4v.08c.05,1,.08,2.09.08,3.14s0,2.1-.08,3.14v.07l-4.17,2.41a56.89,56.89,0,0,1-2.15,10.92l2.91,3.8,0,.07c-.35,1-.73,2-1.13,2.94s-.83,1.93-1.27,2.87l0,.07-4.74.63a57.22,57.22,0,0,1-6.23,9.33l1.23,4.62-.05,0c-.7.78-1.43,1.54-2.17,2.28s-1.5,1.47-2.27,2.17l-.06,0-4.6-1.23a57.67,57.67,0,0,1-9.3,6.24l-.62,4.69-.06,0c-.95.45-1.91.88-2.88,1.28s-2,.78-2.93,1.13l-.07,0-3.75-2.87a56.94,56.94,0,0,1-11.08,2.21l-2.36,4.08h-.08C121.62,130.72,120.56,130.75,119.52,130.75Zm-3-.35c2,.1,4.08.1,6.1,0l2.36-4.08H125a57.12,57.12,0,0,0,11.17-2.23l.07,0,3.74,2.86c1-.34,1.91-.71,2.85-1.1s1.87-.81,2.79-1.24l.62-4.69.06,0a56.83,56.83,0,0,0,9.37-6.29l.05,0,4.6,1.22c.75-.68,1.49-1.39,2.21-2.1s1.42-1.46,2.1-2.21l-1.23-4.61,0-.06a56.82,56.82,0,0,0,6.28-9.4l0-.07,4.73-.63c.43-.91.85-1.85,1.24-2.79s.75-1.89,1.09-2.85l-2.9-3.79,0-.07a56.92,56.92,0,0,0,2.17-11V75.1l4.16-2.4c0-1,.07-2,.07-3s0-2-.07-3.05l-4.15-2.41v-.07A57.2,57.2,0,0,0,173.92,53l0-.06,2.9-3.79c-.34-1-.71-1.91-1.1-2.85s-.8-1.88-1.24-2.79l-4.71-.62,0-.07a56.88,56.88,0,0,0-6.26-9.37l0-.05,1.22-4.59c-.68-.75-1.38-1.49-2.1-2.21s-1.46-1.43-2.21-2.11l-4.57,1.22-.06,0a56.74,56.74,0,0,0-9.45-6.34l-.06,0-.62-4.66c-.92-.44-1.86-.85-2.8-1.24s-1.89-.76-2.85-1.1l-3.71,2.85-.07,0A57.5,57.5,0,0,0,125,13h-.07l-2.34-4c-2-.1-4.08-.1-6.1,0l-2.33,4h-.07a57.45,57.45,0,0,0-11.28,2.22l-.07,0-3.66-2.8c-1,.34-1.91.71-2.85,1.1s-1.87.8-2.79,1.24l-.6,4.55-.06,0a56.65,56.65,0,0,0-9.56,6.38l0,0-4.43-1.18c-.75.68-1.49,1.39-2.21,2.11s-1.42,1.46-2.1,2.21l1.17,4.41,0,.06A57,57,0,0,0,69.09,43l0,.06-4.51.6c-.43.92-.85,1.86-1.24,2.79s-.75,1.9-1.09,2.85L65,52.86l0,.07a57,57,0,0,0-2.23,11.31v.07L58.77,66.6c-.05,1-.07,2-.07,3.05s0,2,.07,3L62.72,75v.07A57,57,0,0,0,65,86.43l0,.06-2.76,3.62c.34,1,.71,1.91,1.1,2.85s.81,1.87,1.24,2.79l4.52.59,0,.07A57.75,57.75,0,0,0,75.54,106l0,.06-1.18,4.43c.68.75,1.38,1.49,2.1,2.21s1.46,1.42,2.21,2.1l4.45-1.18,0,0A56.74,56.74,0,0,0,92.81,120l.06,0,.61,4.58c.92.43,1.86.85,2.8,1.24s1.89.75,2.85,1.09l3.68-2.82.07,0a57.05,57.05,0,0,0,11.17,2.19h.07Z"/><path class="cls-11" d="M140.93,62.94l-5.38,1.43a8.13,8.13,0,0,1-2.29.38c-1.21,0-2.37-.58-3.58-.5a18.09,18.09,0,0,0-3.31,1c-2.19.59-4.49-.2-6.75-.33-3.24-.2-6.54.94-9.68.15-1.65-.41-3.23-1.34-4.91-1.15s-3.3,1.66-5.08,1.56a8.57,8.57,0,0,1-3-1.1,3.41,3.41,0,0,0-3-.23V68.5h49.49V62.28Z"/><path class="cls-12" d="M127,95.13H110.35A17.25,17.25,0,0,1,93.12,77.9V47.15h51.13V77.9A17.25,17.25,0,0,1,127,95.13ZM94.76,48.8V77.9a15.6,15.6,0,0,0,15.59,15.59H127A15.6,15.6,0,0,0,142.61,77.9V48.8Z"/><path d="M103.51,100.55a1.1,1.1,0,0,1,.4-.4,1.12,1.12,0,0,1,.55-.14,1.19,1.19,0,0,1,.63.17,1,1,0,0,1,.39.49h-.34a.7.7,0,0,0-.26-.3.82.82,0,0,0-.42-.11.81.81,0,0,0-.41.11.76.76,0,0,0-.29.3,1,1,0,0,0-.1.46,1,1,0,0,0,.1.46.86.86,0,0,0,.29.31.8.8,0,0,0,.41.1.82.82,0,0,0,.42-.1.67.67,0,0,0,.26-.31h.34a1,1,0,0,1-.39.49,1.19,1.19,0,0,1-.63.17,1.12,1.12,0,0,1-.55-.14,1.1,1.1,0,0,1-.4-.4,1.21,1.21,0,0,1-.14-.58A1.27,1.27,0,0,1,103.51,100.55Z"/><path d="M107.14,101.74h-1l-.18.49h-.3l.79-2.18h.33l.79,2.18h-.3Zm-.08-.23-.4-1.11-.39,1.11Z"/><path d="M109.44,100l-.71,1.36v.83h-.29v-.83l-.72-1.36H108l.54,1.11.55-1.11Z"/><path d="M111,101.74h-1l-.17.49h-.3l.79-2.18h.33l.79,2.18h-.3Zm-.08-.23-.4-1.11-.39,1.11Z"/><path d="M114,100.05v2.18h-.28v-1.62l-.73,1.62h-.2L112,100.6v1.63h-.28v-2.18h.3l.81,1.81.81-1.81Z"/><path d="M115.72,101.2a.55.55,0,0,1,.15.19.57.57,0,0,1,.06.25.56.56,0,0,1-.08.3.67.67,0,0,1-.25.22.92.92,0,0,1-.38.07h-.82V100h.79a.92.92,0,0,1,.38.07.57.57,0,0,1,.23.2.46.46,0,0,1,.08.28.52.52,0,0,1-.1.33.68.68,0,0,1-.28.18A.49.49,0,0,1,115.72,101.2Zm-1-.22h.49a.5.5,0,0,0,.31-.09.36.36,0,0,0,0-.52.46.46,0,0,0-.32-.1h-.48Zm.85.92a.35.35,0,0,0,.12-.28.36.36,0,0,0-.13-.29.51.51,0,0,0-.34-.11h-.5V102h.51A.57.57,0,0,0,115.53,101.9Z"/><path d="M116.55,100.27V101h.8v.24h-.8V102h.9v.23h-1.18V100h1.18v.24Z"/><path d="M119.8,101v.24h-1.26V101Z"/><path d="M121.34,100.27V101h.8v.24h-.8V102h.89v.23h-1.18V100h1.18v.24Z"/><path d="M122.64,100.55a1.1,1.1,0,0,1,.4-.4,1.2,1.2,0,0,1,1.18,0,1,1,0,0,1,.39.49h-.34a.7.7,0,0,0-.26-.3.78.78,0,0,0-.41-.11.82.82,0,0,0-.42.11.68.68,0,0,0-.28.3,1,1,0,0,0-.11.46,1,1,0,0,0,.11.46.76.76,0,0,0,.28.31.82.82,0,0,0,.42.1.78.78,0,0,0,.41-.1.67.67,0,0,0,.26-.31h.34a1,1,0,0,1-.39.49,1.2,1.2,0,0,1-1.18,0,1.1,1.1,0,0,1-.4-.4,1.21,1.21,0,0,1-.14-.58A1.27,1.27,0,0,1,122.64,100.55Z"/><path d="M125.26,100v1.39a.56.56,0,0,0,.14.43.53.53,0,0,0,.4.14.49.49,0,0,0,.39-.14.56.56,0,0,0,.15-.43V100h.28v1.38a.81.81,0,0,1-.11.46.65.65,0,0,1-.29.28,1,1,0,0,1-.42.1.93.93,0,0,1-.42-.1.63.63,0,0,1-.3-.28.89.89,0,0,1-.11-.46V100Z"/><path d="M128.34,101.74h-1l-.18.49h-.3l.8-2.18H128l.79,2.18h-.3Zm-.08-.23-.4-1.11-.4,1.11Z"/><path d="M130.41,100.17a1,1,0,0,1,.4.38,1.12,1.12,0,0,1,.14.59,1.09,1.09,0,0,1-.14.58.87.87,0,0,1-.4.38,1.35,1.35,0,0,1-.62.13h-.69V100h.69A1.35,1.35,0,0,1,130.41,100.17Zm0,1.6a.85.85,0,0,0,.22-.63.88.88,0,0,0-.23-.64.86.86,0,0,0-.64-.23h-.4V102h.4A.89.89,0,0,0,130.44,101.77Z"/><path d="M131.71,102.11a1,1,0,0,1-.4-.4,1.11,1.11,0,0,1-.15-.58,1.17,1.17,0,0,1,.15-.58,1.1,1.1,0,0,1,.4-.4,1.12,1.12,0,0,1,.55-.14,1.2,1.2,0,0,1,.57.14,1.07,1.07,0,0,1,.39.4,1.14,1.14,0,0,1,.15.58,1.11,1.11,0,0,1-.15.58,1,1,0,0,1-.39.4,1.1,1.1,0,0,1-.57.15A1,1,0,0,1,131.71,102.11Zm1-.21a.73.73,0,0,0,.29-.31,1,1,0,0,0,.1-.46,1,1,0,0,0-.1-.46.76.76,0,0,0-.29-.3.82.82,0,0,0-.42-.11.81.81,0,0,0-.41.11.76.76,0,0,0-.29.3,1,1,0,0,0-.11.46,1,1,0,0,0,.11.46.73.73,0,0,0,.29.31.81.81,0,0,0,.41.11A.82.82,0,0,0,132.68,101.9Z"/><path d="M134.84,102.23l-.52-.9H134v.9h-.29V100h.71a.88.88,0,0,1,.42.08.59.59,0,0,1,.26.23.7.7,0,0,1,0,.73.59.59,0,0,1-.39.23l.55.92ZM134,101.1h.42a.46.46,0,0,0,.35-.11.41.41,0,0,0,.12-.31.38.38,0,0,0-.12-.3.49.49,0,0,0-.35-.11H134Z"/><path d="M138.69,104.61H100.42v-7h38.27Zm-38-.28h37.73V97.84H100.69Z"/><path d="M132.86,107.12v-2.79h6.34Zm.27-2.51v2.09l4.77-2.09Z"/><path d="M143.56,107.05H132.77v-2.72h5.65v-4h5.16l-2.87,3.2ZM133,106.78h10l-2.64-3.23,2.62-2.92h-4.28v4H133Z"/><path d="M106.17,107.13l-6.35-2.79h6.35Zm-5-2.51,4.77,2.09v-2.09Z"/><path d="M106.26,107.06H95.46l2.85-3.49-2.86-3.2h5.16v4h5.65ZM96,106.79H106v-2.17h-5.65v-4H96.06l2.61,2.92Z"/><path class="cls-13" d="M120.23,78.45a.17.17,0,0,1,0-.14,2.67,2.67,0,0,1,.46.2l.58.23a5.24,5.24,0,0,0,1.24.31,2.64,2.64,0,0,0,2.13-.63,1.59,1.59,0,0,0,.18-2.08c-.4-.47-1.13-.64-1.38-1.21a1.34,1.34,0,0,1,.13-1.18,3.52,3.52,0,0,1,2.71-1.57,20.78,20.78,0,0,1,3.25.11,9.72,9.72,0,0,0,6.87-2.06,1.79,1.79,0,0,0,.78-1.42s0,0,.06,0a2.09,2.09,0,0,1,.19,1.92,7,7,0,0,1-3.26,3.74,14.45,14.45,0,0,1-1.51.79h.06a11.57,11.57,0,0,0,4.72-2.88,3.2,3.2,0,0,1-.64,1.74A7.24,7.24,0,0,1,133.47,77h.1a6.78,6.78,0,0,0,3-1,1.78,1.78,0,0,1-.73,1.35,5.54,5.54,0,0,1-4.45,1.31l-.1-.05a4.76,4.76,0,0,0,2.63,1.49,7,7,0,0,1-5.17-.05l-.05,0A5.16,5.16,0,0,0,130.3,82c-.11.21-.39.21-.62.19a20.3,20.3,0,0,1-3.44-.67l0,0,.69.69a.13.13,0,0,1,.06.14.24.24,0,0,1-.08.06,1.54,1.54,0,0,1-.92-.09,6.08,6.08,0,0,1-1.9-1.08,3.51,3.51,0,0,1-.74-.75c-.21-.31-.58-.09-.83.07a1.63,1.63,0,0,1-.73.34,1.06,1.06,0,0,1-.35,0,1.74,1.74,0,0,1-.89-.35,1.18,1.18,0,0,1-.39-.86C120.17,79.23,120.35,78.83,120.23,78.45Z"/><path d="M126.63,82.56a2,2,0,0,1-.66-.14,6.49,6.49,0,0,1-2-1.1,3.85,3.85,0,0,1-.77-.79c-.1-.15-.28-.11-.64.11l-.08.06a1.58,1.58,0,0,1-.71.31,1.54,1.54,0,0,1-.38,0,1.87,1.87,0,0,1-1-.39,1.4,1.4,0,0,1-.43-1,2,2,0,0,1,0-.49,1.54,1.54,0,0,0,0-.64h0l.13,0-.13,0a.28.28,0,0,1,0-.25c.08-.13.21-.07.51.09l.11.06.58.22a4.78,4.78,0,0,0,1.2.3,2.47,2.47,0,0,0,2-.59,1.45,1.45,0,0,0,.18-1.89,2.46,2.46,0,0,0-.59-.46,2.05,2.05,0,0,1-.82-.78,1.5,1.5,0,0,1,.14-1.3,3.63,3.63,0,0,1,2.82-1.64,12,12,0,0,1,2.32,0l.95.07a9.56,9.56,0,0,0,6.77-2A1.62,1.62,0,0,0,137,69v0l.05-.11h.08a.21.21,0,0,1,.18.1,2.25,2.25,0,0,1,.21,2A6.61,6.61,0,0,1,135,74.31a7.93,7.93,0,0,0,2.3-1.78l.24-.28v.37a3.18,3.18,0,0,1-.66,1.82,7.46,7.46,0,0,1-2.56,2.34,6.51,6.51,0,0,0,2.15-.88l.2-.12V76a1.87,1.87,0,0,1-.78,1.46,5.69,5.69,0,0,1-4.27,1.39A5.4,5.4,0,0,0,134,80l.38.12-.37.14a7.17,7.17,0,0,1-5,0,5.54,5.54,0,0,0,1.44,1.55l.09.07-.05.1c-.11.22-.37.31-.76.27a20,20,0,0,1-3-.55l.34.35c.13.13.12.23.09.3s-.13.11-.16.13A1.27,1.27,0,0,1,126.63,82.56Zm-3.54-2.39a.44.44,0,0,1,.39.21,3.51,3.51,0,0,0,.72.72,5.94,5.94,0,0,0,1.86,1.06,1.4,1.4,0,0,0,.78.1l-.71-.72-.21-.31.36.1a19,19,0,0,0,3.41.67.83.83,0,0,0,.41,0,5.27,5.27,0,0,1-1.54-1.8l0-.1.19-.16.08,0a6.91,6.91,0,0,0,4.68.19,4.39,4.39,0,0,1-2.3-1.42l-.33-.47.58.31a5.37,5.37,0,0,0,4.32-1.29,1.88,1.88,0,0,0,.67-1,6.87,6.87,0,0,1-2.83.9h-.85l.69-.27a7.15,7.15,0,0,0,3.25-2.62,3.29,3.29,0,0,0,.58-1.27,12.71,12.71,0,0,1-4.49,2.61h0l-.86.06.73-.32a13.3,13.3,0,0,0,1.5-.78,7,7,0,0,0,3.2-3.66,2.29,2.29,0,0,0,0-1.55,2.28,2.28,0,0,1-.8,1.15,9.82,9.82,0,0,1-7,2.09l-1-.07a12.3,12.3,0,0,0-2.27,0,3.35,3.35,0,0,0-2.61,1.5,1.23,1.23,0,0,0-.13,1,1.75,1.75,0,0,0,.71.66,2.75,2.75,0,0,1,.66.52,1.72,1.72,0,0,1-.2,2.26,2.72,2.72,0,0,1-2.24.68,6,6,0,0,1-1.27-.32l-.59-.23-.12-.06-.11-.06a2.16,2.16,0,0,1,0,.67,2.2,2.2,0,0,0,0,.44,1.13,1.13,0,0,0,.35.76,1.78,1.78,0,0,0,.83.32,1.09,1.09,0,0,0,.31,0,1.33,1.33,0,0,0,.58-.27l.08-.06A1.34,1.34,0,0,1,123.09,80.17Z"/><path class="cls-14" d="M119.55,68.76h-4.11c-2.36,0-4.26,5.72-4.26,12.78s1.9,12.77,4.26,12.77h4.11c2.35,0,4.26-5.72,4.26-12.77S121.9,68.76,119.55,68.76Z"/><ellipse class="cls-15" cx="115.44" cy="81.54" rx="4.26" ry="12.78"/><ellipse class="cls-14" cx="115.44" cy="81.54" rx="3.25" ry="9.74"/><ellipse class="cls-16" cx="115.44" cy="81.54" rx="2.41" ry="7.22"/><path class="cls-17" d="M115.44,81.54c0,2.72.59,5,1.41,5.84a15,15,0,0,0,1-5.84,15.09,15.09,0,0,0-1-5.85C116,76.5,115.44,78.81,115.44,81.54Z"/><path d="M119.55,94.45h-4.11c-2.47,0-4.4-5.67-4.4-12.91s1.93-12.92,4.4-12.92h4.11c2.46,0,4.4,5.68,4.4,12.92S122,94.45,119.55,94.45ZM115.44,68.9c-1.06,0-2.11,1.33-2.88,3.65a29.54,29.54,0,0,0-1.25,9,29.59,29.59,0,0,0,1.25,9c.77,2.31,1.82,3.64,2.88,3.64h4.11c1.06,0,2.11-1.33,2.88-3.64a29.61,29.61,0,0,0,1.24-9,29.57,29.57,0,0,0-1.24-9c-.77-2.32-1.82-3.65-2.88-3.65Z"/><path d="M115.44,94.45c-2.47,0-4.4-5.67-4.4-12.91s1.93-12.92,4.4-12.92,4.39,5.68,4.39,12.92S117.9,94.45,115.44,94.45Zm0-25.55c-1.06,0-2.11,1.33-2.88,3.65a29.54,29.54,0,0,0-1.25,9,29.59,29.59,0,0,0,1.25,9c.77,2.31,1.82,3.64,2.88,3.64s2.11-1.33,2.88-3.64a29.61,29.61,0,0,0,1.24-9,29.57,29.57,0,0,0-1.24-9C117.55,70.23,116.5,68.9,115.44,68.9Z"/><path d="M115.44,91.42c-1.9,0-3.39-4.34-3.39-9.88s1.49-9.88,3.39-9.88,3.38,4.34,3.38,9.88S117.34,91.42,115.44,91.42Zm0-19.49c-1.69,0-3.11,4.4-3.11,9.61s1.42,9.6,3.11,9.6,3.11-4.4,3.11-9.6S117.12,71.93,115.44,71.93Z"/><path d="M115.44,88.89c-1.43,0-2.55-3.23-2.55-7.35s1.12-7.36,2.55-7.36S118,77.41,118,81.54,116.86,88.89,115.44,88.89Zm0-14.44c-1.23,0-2.27,3.25-2.27,7.09s1,7.08,2.27,7.08,2.27-3.25,2.27-7.08S116.67,74.45,115.44,74.45Z"/><path class="cls-13" d="M117.61,79a2.26,2.26,0,0,1-1-.54,1.59,1.59,0,0,1-.18-2.08c.4-.47,1.13-.64,1.38-1.21a1.38,1.38,0,0,0-.13-1.18A3.52,3.52,0,0,0,115,72.38a20.86,20.86,0,0,0-3.25.11,9.7,9.7,0,0,1-6.86-2.06,1.76,1.76,0,0,1-.78-1.42s0,0-.07,0a2.12,2.12,0,0,0-.18,1.92,7,7,0,0,0,3.26,3.74,13.51,13.51,0,0,0,1.51.79h-.06a11.57,11.57,0,0,1-4.72-2.88,3.2,3.2,0,0,0,.64,1.74A7.27,7.27,0,0,0,107.81,77h-.09a6.82,6.82,0,0,1-3-1,1.82,1.82,0,0,0,.74,1.35,5.54,5.54,0,0,0,4.45,1.31l.09-.05a4.7,4.7,0,0,1-2.62,1.49,7,7,0,0,0,5.17-.05l0,0A5.16,5.16,0,0,1,111,82c.11.21.39.21.62.19a20,20,0,0,0,3.43-.67v0l-.69.69a.13.13,0,0,0-.06.14.24.24,0,0,0,.08.06,1.5,1.5,0,0,0,.91-.09,6.12,6.12,0,0,0,1.91-1.08,5.68,5.68,0,0,0,.51-.47C117.67,80.15,117.63,79.55,117.61,79Z"/><path d="M114.65,82.56a1.26,1.26,0,0,1-.33,0s-.12,0-.16-.13a.26.26,0,0,1,.08-.3l.35-.35a20,20,0,0,1-3,.55c-.39,0-.65,0-.76-.27l-.05-.1.09-.07a5.54,5.54,0,0,0,1.44-1.55,7.17,7.17,0,0,1-5,0l-.37-.14.38-.12a5.4,5.4,0,0,0,2.3-1.13,5.68,5.68,0,0,1-4.27-1.39,1.84,1.84,0,0,1-.78-1.46v-.23l.2.12a6.64,6.64,0,0,0,2.15.88,7.56,7.56,0,0,1-2.56-2.34,3.18,3.18,0,0,1-.66-1.82v-.37l.24.28a7.93,7.93,0,0,0,2.3,1.78A6.61,6.61,0,0,1,103.74,71a2.25,2.25,0,0,1,.21-2,.2.2,0,0,1,.18-.1h.07l.06.11v0c-.05.41.2.84.73,1.3a9.55,9.55,0,0,0,6.77,2l.95-.07a12,12,0,0,1,2.32,0,3.63,3.63,0,0,1,2.82,1.64,1.46,1.46,0,0,1,.13,1.3,2,2,0,0,1-.81.78,2.46,2.46,0,0,0-.59.46,1.45,1.45,0,0,0,.18,1.89,2.11,2.11,0,0,0,.89.51l.1,0V79c0,.34,0,.67,0,1s0,.52,0,.77v.06l0,0a5.94,5.94,0,0,1-.52.49,6.49,6.49,0,0,1-2,1.1A2,2,0,0,1,114.65,82.56Zm-.2-.3a1.41,1.41,0,0,0,.78-.1,5.94,5.94,0,0,0,1.86-1.06,3.55,3.55,0,0,0,.46-.41l0-.72c0-.3,0-.6,0-.91a2.21,2.21,0,0,1-.91-.55,1.72,1.72,0,0,1-.2-2.26,2.7,2.7,0,0,1,.65-.52,1.63,1.63,0,0,0,.71-.66,1.19,1.19,0,0,0-.12-1,3.35,3.35,0,0,0-2.61-1.5,12.3,12.3,0,0,0-2.27,0l-1,.07a9.82,9.82,0,0,1-7-2.09,2.22,2.22,0,0,1-.8-1.15,2.29,2.29,0,0,0,0,1.55,7,7,0,0,0,3.2,3.66,13.3,13.3,0,0,0,1.5.78l.73.32-.9-.07A12.71,12.71,0,0,1,104,73a3.4,3.4,0,0,0,.57,1.27,7.23,7.23,0,0,0,3.26,2.62l.69.27h-.84a6.86,6.86,0,0,1-2.84-.9,1.88,1.88,0,0,0,.67,1,5.36,5.36,0,0,0,4.32,1.29l.58-.31-.33.47a4.38,4.38,0,0,1-2.31,1.42,6.94,6.94,0,0,0,4.69-.19l.08,0,.19.16,0,.1a5.14,5.14,0,0,1-1.53,1.8.83.83,0,0,0,.41,0,19,19,0,0,0,3.41-.67l.36-.1-.25.36Z"/><path class="cls-18" d="M69.8,89.48a3.21,3.21,0,0,1-1.6-.78,3.54,3.54,0,0,1-1-1.59,3.45,3.45,0,0,1-.06-2.24,3.17,3.17,0,0,1,1.33-1.7l.6,1.78a1.63,1.63,0,0,0-.45.78,1.74,1.74,0,0,0,.06.9,1.64,1.64,0,0,0,.93,1,2.07,2.07,0,0,0,1.55,0,2.13,2.13,0,0,0,1.24-.93,1.68,1.68,0,0,0,.12-1.39,1.75,1.75,0,0,0-.5-.76,1.56,1.56,0,0,0-.83-.35l-.59-1.78a3.14,3.14,0,0,1,2.08.56,3.85,3.85,0,0,1,1.45,3.69,3.33,3.33,0,0,1-.8,1.6,3.85,3.85,0,0,1-1.61,1A3.72,3.72,0,0,1,69.8,89.48Z"/><path class="cls-18" d="M71.78,78.15a3.39,3.39,0,0,1-1.09,1.47,3.52,3.52,0,0,1-1.77.74,3.66,3.66,0,0,1-1.9-.22A3.43,3.43,0,0,1,65.57,79a3.77,3.77,0,0,1-.5-3.59A3.36,3.36,0,0,1,66.15,74a3.9,3.9,0,0,1,3.68-.51,3.49,3.49,0,0,1,1.45,1.12,3.59,3.59,0,0,1,.7,1.73A3.55,3.55,0,0,1,71.78,78.15Zm-2.08-2.9a2.08,2.08,0,0,0-1.54-.3,2.13,2.13,0,0,0-1.4.71,1.93,1.93,0,0,0,.37,2.67,2.43,2.43,0,0,0,3-.41,1.91,1.91,0,0,0-.38-2.67Z"/><path class="cls-18" d="M71,69.15a3.43,3.43,0,0,1-1.34,1.25,3.61,3.61,0,0,1-1.88.4A3.53,3.53,0,0,1,66,70.23a3.36,3.36,0,0,1-1.22-1.37,3.79,3.79,0,0,1,.16-3.62A3.4,3.4,0,0,1,66.27,64a3.47,3.47,0,0,1,1.87-.39,3.69,3.69,0,0,1,1.84.56,3.47,3.47,0,0,1,1.22,1.36,3.66,3.66,0,0,1,.38,1.83A3.56,3.56,0,0,1,71,69.15Zm-1.51-3.23a2.11,2.11,0,0,0-1.46-.58,2.13,2.13,0,0,0-1.5.44,1.92,1.92,0,0,0-.13,2.7,2.46,2.46,0,0,0,3,.14A1.76,1.76,0,0,0,70,67.29,1.73,1.73,0,0,0,69.52,65.92Z"/><path class="cls-18" d="M69.56,56a2,2,0,0,1,.61,1,3,3,0,0,1,0,1.48l-.22,1L72.4,60,72,61.71l-6.86-1.5.6-2.71a3.09,3.09,0,0,1,.58-1.32,2,2,0,0,1,1-.68,2.35,2.35,0,0,1,1.21,0A2.24,2.24,0,0,1,69.56,56Zm-.82,1.56a.86.86,0,0,0-.58-.37.87.87,0,0,0-.69.09,1,1,0,0,0-.38.66l-.2.91,1.72.38.2-.91A1,1,0,0,0,68.74,57.54Z"/><path class="cls-18" d="M69.14,50.92l1.33.5.81-2.14,1.24.47-.81,2.14,1.44.55L74.07,50l1.28.48-1.53,4L67.25,52l1.53-4,1.28.49Z"/><path class="cls-18" d="M78,45.31l-3,0-.2.36,2.31,1.3-.84,1.49L70.16,45l1.4-2.5a3.13,3.13,0,0,1,1-1.09A2,2,0,0,1,73.63,41a2.3,2.3,0,0,1,1.13.3,2.07,2.07,0,0,1,1,2.36L79,43.62Zm-4.29-.26.52-.93a1,1,0,0,0,.15-.72.87.87,0,0,0-.46-.53.84.84,0,0,0-.66-.1,1,1,0,0,0-.55.5l-.52.93Z"/><path class="cls-18" d="M82,37.66l-1.65,2,.7,1.1-1.12,1.4L76,35.8l1.25-1.54,7.06,2.44-1.14,1.41Zm-1.3-.49-2.55-.94,1.46,2.29Z"/><path class="cls-18" d="M84.8,26.78l.92,1L84.33,29l3.77,4.22L86.82,34.4l-3.77-4.22-1.38,1.24-.92-1Z"/><path class="cls-18" d="M88.54,24.08l4,5.75-1.4,1-4-5.75Z"/><path class="cls-18" d="M97.18,19.17l1,7.38-1.9,1-5.45-5.08,1.61-.84,4,3.9L95.58,20Z"/><path class="cls-18" d="M106,22.25l-2.51.78,0,1.31-1.71.53.33-7.46,1.89-.59,4.52,5.94-1.72.55Zm-.82-1.13-1.6-2.2,0,2.71Z"/><path class="cls-18" d="M117.88,15.06a3.13,3.13,0,0,1,1.36,1.16,3.95,3.95,0,0,1,.2,3.66,3.08,3.08,0,0,1-1.22,1.31,4.15,4.15,0,0,1-1.91.55l-2.63.14-.39-7,2.63-.15A4,4,0,0,1,117.88,15.06Zm-.28,4.59a2,2,0,0,0,.45-1.53,1.86,1.86,0,0,0-2.16-1.93l-.81,0,.23,4.08.81,0A2,2,0,0,0,117.6,19.65Z"/><path class="cls-18" d="M124.36,16.21l-.14,1.41,2.28.23-.13,1.31-2.28-.22-.15,1.53,2.58.25-.14,1.37-4.28-.42.69-7,4.28.42-.13,1.36Z"/><path class="cls-18" d="M138.93,18.1l-.42,1.3-1.77-.57L135,24.21l-1.63-.52,1.74-5.38-1.77-.58.42-1.3Z"/><path class="cls-18" d="M141.84,27.16l-.12-3-.36-.19-1.2,2.37-1.52-.77,3.16-6.27,2.56,1.29a3.17,3.17,0,0,1,1.13.9,1.92,1.92,0,0,1,.43,1.1,2.21,2.21,0,0,1-.25,1.14,2.12,2.12,0,0,1-.91.94,2.18,2.18,0,0,1-1.4.17l.2,3.21Zm.06-4.29.95.48a1,1,0,0,0,.73.11.82.82,0,0,0,.5-.47.85.85,0,0,0,.08-.67,1,1,0,0,0-.53-.52l-.95-.48Z"/><path class="cls-18" d="M149.65,30.74l-2.11-1.56-1.07.75L145,28.87l6.21-4.15,1.59,1.18-2.12,7.16L149.26,32Zm.43-1.33.83-2.58-2.22,1.56Z"/><path class="cls-18" d="M156.43,38.9l-1.18-1.24,1.18-5.06-3.14,3-1.18-1.24,5.1-4.83,1.18,1.24-1.2,5.07,3.16-3,1.18,1.24Z"/><path class="cls-18" d="M158.67,41.66a2.32,2.32,0,0,1,.07-1.23,2,2,0,0,1,.76-1l1,1.51a.81.81,0,0,0-.18,1.16.92.92,0,0,0,.48.4.6.6,0,0,0,.53-.08.61.61,0,0,0,.26-.39,1.26,1.26,0,0,0,0-.51,5.71,5.71,0,0,0-.2-.74,10.15,10.15,0,0,1-.27-1.16,2.11,2.11,0,0,1,.1-1,1.75,1.75,0,0,1,.72-.86,1.84,1.84,0,0,1,1.67-.26,2.86,2.86,0,0,1,1.49,1.22,3,3,0,0,1,.59,1.86,2,2,0,0,1-.86,1.5l-1-1.54a.7.7,0,0,0,.3-.5.87.87,0,0,0-.17-.6.76.76,0,0,0-.41-.33.62.62,0,0,0-.5.11.61.61,0,0,0-.27.56,5.87,5.87,0,0,0,.22,1.06,10,10,0,0,1,.26,1.17,2.08,2.08,0,0,1-.1,1,1.66,1.66,0,0,1-.68.83,2.11,2.11,0,0,1-1.08.36,2.21,2.21,0,0,1-1.14-.3,3,3,0,0,1-1-1A3.53,3.53,0,0,1,158.67,41.66Z"/><path class="cls-18" d="M167.26,50a2,2,0,0,1-1.1-.44,3.08,3.08,0,0,1-.9-1.17l-.45-1-2.28,1.07L161.8,47l6.36-3,1.18,2.51a3.09,3.09,0,0,1,.34,1.41,2,2,0,0,1-.35,1.12,2.3,2.3,0,0,1-.94.76A2.25,2.25,0,0,1,167.26,50Zm-.3-1.74a.85.85,0,0,0,.69-.06.87.87,0,0,0,.49-.49A1.07,1.07,0,0,0,168,47l-.4-.85-1.59.75.39.84A1,1,0,0,0,167,48.26Z"/><path class="cls-18" d="M165.59,55a3.44,3.44,0,0,1,.89-1.6,3.79,3.79,0,0,1,3.58-1,3.38,3.38,0,0,1,1.58.92,3.77,3.77,0,0,1,1,3.5,3.39,3.39,0,0,1-.89,1.6,3.7,3.7,0,0,1-1.66,1,3.58,3.58,0,0,1-1.92,0,3.45,3.45,0,0,1-1.58-.91,3.84,3.84,0,0,1-1-3.5ZM168,57.64a2.11,2.11,0,0,0,1.56.1,2.16,2.16,0,0,0,1.3-.88,1.73,1.73,0,0,0,.18-1.45,1.75,1.75,0,0,0-.89-1.16,2.45,2.45,0,0,0-2.87.79,1.72,1.72,0,0,0-.18,1.45A1.74,1.74,0,0,0,168,57.64Z"/><path class="cls-18" d="M167.27,66l2.5-1.7,0-.41-2.64.25-.16-1.71,7-.66.27,2.86a3.15,3.15,0,0,1-.16,1.44,2,2,0,0,1-.71,1,2.27,2.27,0,0,1-1.09.39A2.07,2.07,0,0,1,170.07,66l-2.62,1.87Zm3.67-2.23.1,1.06a1,1,0,0,0,.3.68.85.85,0,0,0,.67.17.82.82,0,0,0,.6-.29,1,1,0,0,0,.16-.72l-.1-1.06Z"/><path class="cls-18" d="M174.17,75.52l-1.36-.08.1-1.86-5.64-.32.1-1.71,5.64.33.11-1.86,1.37.08Z"/><path class="cls-18" d="M171.2,83.64l-1.37-.38-.61,2.21-1.28-.35.62-2.21-1.49-.41L166.38,85l-1.32-.36,1.15-4.15L173,82.36l-1.15,4.15-1.32-.37Z"/><path class="cls-18" d="M164,87.91a2.33,2.33,0,0,1,1.07-.59,2,2,0,0,1,1.24.13l-.74,1.66a.82.82,0,0,0-1.08.47.94.94,0,0,0-.08.62.56.56,0,0,0,.35.4.55.55,0,0,0,.47,0,1.38,1.38,0,0,0,.43-.28,6.39,6.39,0,0,0,.52-.56,7.35,7.35,0,0,1,.83-.84,2,2,0,0,1,.87-.43,1.69,1.69,0,0,1,1.1.15,1.84,1.84,0,0,1,1.12,1.27,3.37,3.37,0,0,1-1.51,3.4,2,2,0,0,1-1.72.07l.75-1.69a.71.71,0,0,0,.59,0,.91.91,0,0,0,.42-.46.76.76,0,0,0,.05-.53.58.58,0,0,0-.36-.36.57.57,0,0,0-.61.08,5,5,0,0,0-.78.75,10.47,10.47,0,0,1-.85.83,2.1,2.1,0,0,1-.86.42,1.56,1.56,0,0,1-1.06-.13,2,2,0,0,1-.88-.72,2.09,2.09,0,0,1-.35-1.12,3,3,0,0,1,.29-1.38A3.64,3.64,0,0,1,164,87.91Z"/><path d="M111.61,41.78H110.1a.2.2,0,0,1-.2-.21.2.2,0,0,1,.2-.2h1.51a.21.21,0,1,1,0,.41Z"/><path d="M104.17,42.9h-22l.16-.21a46.06,46.06,0,0,1,10-10.09l0,0h11.84Zm-21.51-.27H103.9V32.85H92.42A45.49,45.49,0,0,0,82.66,42.63Z"/><path d="M156.73,42.9h-19.9V32.58h9.69l0,0a46.06,46.06,0,0,1,10,10.09Zm-19.62-.27h19.08a45.49,45.49,0,0,0-9.76-9.78h-9.32Z"/><polygon class="cls-19" points="79.87 102.44 81.08 100.3 82.04 102.56 84.45 103.06 82.59 104.67 82.86 107.11 80.76 105.84 78.52 106.86 79.08 104.46 77.42 102.65 79.87 102.44"/><polygon class="cls-19" points="158.1 101.47 159.32 99.33 160.28 101.59 162.68 102.08 160.83 103.69 161.1 106.14 159 104.87 156.76 105.89 157.31 103.49 155.66 101.68 158.1 101.47"/><path class="cls-6" d="M88.48,108.9l-1.06,1.23-.24-.21c.28-.89.45-1.31-.06-1.75l-.18-.15c-.18-.15-.22-.15-.36,0l-1.32,1.53.29.25c.32.27.36.28,1.11-.13l.24.21-1.33,1.54-.25-.21c.28-.72.31-.87,0-1.14l-.29-.26-1.09,1.26c-.26.31-.27.36.16.75l-.17.2-2.24-1.93.17-.2c.36.29.42.28.68,0l2.54-2.93c.26-.31.27-.38-.07-.69l.17-.2Z"/><path class="cls-6" d="M88.7,114.66c-.22.32-.15.44.22.69s.68.24,1.78-.45l.29.2-1.1,1.34L86.31,114l.15-.22c.39.25.45.23.68-.1l2.2-3.2c.23-.33.23-.4-.14-.67l.15-.21,2.42,1.67-.15.21c-.42-.28-.52-.28-.75.05Z"/><path class="cls-6" d="M97.57,117.61a2.8,2.8,0,1,1-1.18-3.78A2.49,2.49,0,0,1,97.57,117.61Zm-3.64.91c.55.28,1.09-.24,1.91-1.81.55-1,1.1-2.25.41-2.61-.41-.22-1,0-1.91,1.82C93.46,117.59,93.44,118.26,93.93,118.52Z"/><path class="cls-6" d="M100.47,120.82c-.14.38-.13.44.31.62l-.09.24-2.66-1,.09-.25c.44.14.49.11.63-.27l1.32-3.65c.14-.37.12-.44-.3-.62l.08-.23,3,1.09c.93.34,1.68.73,1.29,1.81-.24.65-.91,1-2,.66v0a1.62,1.62,0,0,1,1,1.81c-.15.95-.1,1,.24,1.24l-.09.25-1-.36c-.76-.27-1.07-.6-1-1.24a9,9,0,0,1,.24-1.25.44.44,0,0,0-.25-.58l-.13-.05Zm.71-2,.15.05c.59.21.88-.27,1.07-.78.24-.67.17-1.12-.19-1.25s-.3,0-.38.19Z"/><path class="cls-6" d="M111.11,118.91a2.77,2.77,0,0,1,2,.94,2.63,2.63,0,0,1,.3,2.07,2.5,2.5,0,0,1-1.51,2.09,3.65,3.65,0,0,1-2.07.09l-2.51-.42,0-.26c.45.06.5,0,.57-.38l.64-3.82c.07-.4,0-.47-.41-.56l0-.25Zm-1.4,4.52c0,.24,0,.35.29.39.45.08,1.11-.13,1.45-2.17.27-1.61,0-2.38-.69-2.49-.24,0-.33,0-.36.15Z"/><path class="cls-6" d="M115.43,120.2c0-.4,0-.46-.48-.49v-.26l4.39.19-.07,1.54H119c-.45-1.19-.48-1.22-1.14-1.25h-.28c-.23,0-.24,0-.25.26l-.08,1.82h.28c.49,0,.52,0,.83-.78l.31,0-.08,2h-.32c-.24-.8-.26-.83-.76-.85l-.28,0-.07,1.75c0,.44,0,.45.58.47s.77,0,1.5-1.32l.3,0-.22,1.72-4.54-.19v-.26c.46,0,.5,0,.52-.45Z"/><path class="cls-6" d="M123.38,124c0,.39.15.44.61.41s.68-.24,1.11-1.46l.35,0,0,1.73-4.33.3,0-.26c.46,0,.5-.1.47-.51l-.27-3.87c0-.4-.07-.45-.53-.44l0-.25,2.94-.21,0,.26c-.51,0-.59.11-.56.51Z"/><path class="cls-6" d="M133.52,117.93c-.32.11-.4.15-.45.5-.14,1.18-.36,3.62-.43,4.93l-1.33.3-2.52-4.19c-.21-.34-.29-.35-.61-.31l-.06-.25,2.81-.64,0,.24-.39.14c-.12,0-.09.16,0,.28.54,1,1.25,2.23,1.82,3.23h.05c.06-1.21.13-3,.11-3.66,0-.13-.06-.25-.19-.23l-.44,0-.06-.25,1.62-.37Z"/><path class="cls-6" d="M137.47,121.93l-.09-.25.32-.17c.17-.09.14-.16,0-.37s-.48-.71-.68-1l-1.26.44c0,.48.08,1,.11,1.22s.09.3.26.25l.43-.1.08.24-1.58.56-.09-.25c.37-.16.41-.22.44-.53.05-.73,0-3.83-.15-5l1.29-.45c.57.85,2.45,3.37,3,3.92.23.25.26.28.68.19l.09.24Zm-.66-2.07c-.29-.43-.8-1.13-1.16-1.64h0c0,.52.09,1.45.13,2Z"/><path class="cls-6" d="M143.26,118.66c.18.36.31.36.72.16s.55-.48.48-1.77l.32-.15.62,1.61-3.9,1.9-.12-.24c.41-.22.42-.28.25-.64L139.94,116c-.18-.37-.24-.4-.66-.21l-.11-.23,2.64-1.29.12.23c-.46.24-.5.33-.33.69Z"/><path class="cls-6" d="M148.44,115.78c.21.33.35.32.73.07s.49-.53.29-1.81l.3-.19.79,1.55-3.68,2.3-.14-.22c.39-.26.39-.32.18-.66l-2.06-3.29c-.22-.34-.28-.37-.68-.14l-.14-.21,2.5-1.57.13.22c-.42.28-.46.38-.25.72Z"/><path class="cls-6" d="M149.46,110.51c-.25-.32-.32-.34-.69-.07l-.16-.2,3.44-2.73,1,1.21-.25.2c-1.12-.6-1.17-.6-1.68-.19l-.22.17c-.18.14-.17.18,0,.37l1.13,1.42.22-.17c.38-.31.39-.35.12-1.13l.24-.2,1.24,1.56-.25.2c-.71-.45-.75-.46-1.13-.15l-.22.17,1.08,1.37c.28.34.32.32.75,0s.57-.52.27-2l.24-.19,1,1.45-3.56,2.83-.16-.21c.35-.3.35-.36.1-.68Z"/><path class="cls-18" d="M213.76,18.4A13.66,13.66,0,0,1,219.12,13a15.58,15.58,0,0,1,7.81-2,15,15,0,0,1,9.15,2.82,13.57,13.57,0,0,1,5.09,7.7h-8a6.56,6.56,0,0,0-2.55-2.87,7.17,7.17,0,0,0-3.74-1A7,7,0,0,0,221.37,20a9.11,9.11,0,0,0-2.1,6.29,9.06,9.06,0,0,0,2.1,6.28A7,7,0,0,0,226.84,35a7.09,7.09,0,0,0,3.74-1,6.48,6.48,0,0,0,2.55-2.86h8a13.43,13.43,0,0,1-5.09,7.67,15,15,0,0,1-9.15,2.8,15.58,15.58,0,0,1-7.81-1.94,13.8,13.8,0,0,1-5.36-5.41,16,16,0,0,1-1.93-7.91A16,16,0,0,1,213.76,18.4Z"/><path class="cls-18" d="M252.09,39.71a14.69,14.69,0,0,1-5.6-5.49,15.38,15.38,0,0,1-2.07-7.93,15.23,15.23,0,0,1,2.07-7.91,14.73,14.73,0,0,1,5.6-5.48,16.29,16.29,0,0,1,15.53,0,14.39,14.39,0,0,1,5.55,5.48,15.41,15.41,0,0,1,2,7.91,15.47,15.47,0,0,1-2.06,7.93,14.58,14.58,0,0,1-5.56,5.49,15.52,15.52,0,0,1-7.74,2A15.68,15.68,0,0,1,252.09,39.71Zm13.52-7.1a9.11,9.11,0,0,0,2.16-6.32,9.1,9.1,0,0,0-2.16-6.35,7.39,7.39,0,0,0-5.76-2.38,7.51,7.51,0,0,0-5.79,2.35,9.08,9.08,0,0,0-2.16,6.38,9.09,9.09,0,0,0,2.16,6.35A7.45,7.45,0,0,0,259.85,35,7.37,7.37,0,0,0,265.61,32.61Z"/><path class="cls-18" d="M285.7,39.71a14.69,14.69,0,0,1-5.6-5.49A15.38,15.38,0,0,1,278,26.29a15.23,15.23,0,0,1,2.07-7.91,14.73,14.73,0,0,1,5.6-5.48,16.29,16.29,0,0,1,15.53,0,14.49,14.49,0,0,1,5.56,5.48,15.5,15.5,0,0,1,2,7.91,15.47,15.47,0,0,1-2.06,7.93,14.51,14.51,0,0,1-5.56,5.49,15.51,15.51,0,0,1-7.73,2A15.72,15.72,0,0,1,285.7,39.71Zm13.52-7.1a9.06,9.06,0,0,0,2.16-6.32,9.05,9.05,0,0,0-2.16-6.35,7.38,7.38,0,0,0-5.75-2.38,7.51,7.51,0,0,0-5.8,2.35,9.08,9.08,0,0,0-2.16,6.38,9.09,9.09,0,0,0,2.16,6.35,7.46,7.46,0,0,0,5.8,2.37A7.36,7.36,0,0,0,299.22,32.61Z"/><path class="cls-18" d="M334.56,25.79a8.83,8.83,0,0,1-3.68,3.49,13,13,0,0,1-6.16,1.32h-4.53V41.38h-7.31v-30h11.84a13.61,13.61,0,0,1,6.08,1.24A8.6,8.6,0,0,1,334.52,16a10,10,0,0,1,1.24,5A9.59,9.59,0,0,1,334.56,25.79Zm-7.27-2a3.71,3.71,0,0,0,1-2.78,3.67,3.67,0,0,0-1-2.78,4.34,4.34,0,0,0-3.12-1h-4v7.53h4A4.39,4.39,0,0,0,327.29,23.81Z"/><path class="cls-18" d="M346.87,17.22v6.07h9.8v5.65h-9.8v6.58H358v5.86H339.56v-30H358v5.86Z"/><path class="cls-18" d="M378,41.38l-6.24-11.33H370V41.38H362.7v-30H375a13.62,13.62,0,0,1,6,1.24,8.56,8.56,0,0,1,3.74,3.4A9.47,9.47,0,0,1,386,20.81a8.75,8.75,0,0,1-6.67,8.68l6.93,11.89Zm-8-16.51h4.53a4.14,4.14,0,0,0,3-1,3.74,3.74,0,0,0,1-2.78,3.61,3.61,0,0,0-1-2.69,4.15,4.15,0,0,0-3-1H370Z"/><path class="cls-18" d="M409.26,36.08h-11.2l-1.8,5.3h-7.65l10.86-30h8.47l10.86,30h-7.74Zm-1.88-5.65-3.72-11-3.68,11Z"/><path class="cls-18" d="M443.69,11.36v5.86h-8V41.38h-7.31V17.22h-7.95V11.36Z"/><path class="cls-18" d="M454.68,11.36v30h-7.32v-30Z"/><path class="cls-18" d="M488.16,11.36l-10.65,30h-9.15l-10.65-30h7.78L472.94,34l7.48-22.67Z"/><path class="cls-18" d="M509.88,36.08h-11.2l-1.8,5.3h-7.65l10.86-30h8.47l10.86,30h-7.74ZM508,30.43l-3.72-11-3.68,11Z"/><path class="cls-18" d="M232.62,54.91a13.43,13.43,0,0,1,5.49,5.28,16.72,16.72,0,0,1,0,15.67,13.46,13.46,0,0,1-5.52,5.31,17.54,17.54,0,0,1-8.27,1.88H213.07V53h11.25A17.55,17.55,0,0,1,232.62,54.91Zm-2.31,19.54A8.58,8.58,0,0,0,232.62,68a8,8,0,0,0-8.77-8.77h-3.46V76.72h3.46A8.85,8.85,0,0,0,230.31,74.45Z"/><path class="cls-18" d="M251.47,58.89V65h9.8V70.6h-9.8v6.59h11.08v5.86H244.16V53h18.39v5.86Z"/><path class="cls-18" d="M298,53v5.86H290V83.05h-7.31V58.89h-8V53Z"/><path class="cls-18" d="M316.94,83.05,310.7,71.71h-1.76V83.05h-7.31V53H313.9A13.43,13.43,0,0,1,320,54.27a8.59,8.59,0,0,1,3.75,3.4,9.55,9.55,0,0,1,1.24,4.81,9,9,0,0,1-1.69,5.34,9.14,9.14,0,0,1-5,3.34l6.92,11.89Zm-8-16.51h4.54a4.16,4.16,0,0,0,3-1,3.73,3.73,0,0,0,1-2.78,3.62,3.62,0,0,0-1-2.7,4.16,4.16,0,0,0-3-1h-4.54Z"/><path class="cls-18" d="M348.2,77.74H337l-1.8,5.31h-7.66l10.87-30h8.46l10.86,30H350Zm-1.88-5.64-3.72-11-3.68,11Z"/><path class="cls-18" d="M387.88,83.05h-7.31L368.34,64.53V83.05H361V53h7.31l12.23,18.6V53h7.31Z"/><path class="cls-18" d="M398.14,82.28A9.68,9.68,0,0,1,394,79.11a8.58,8.58,0,0,1-1.65-5h7.78a3.77,3.77,0,0,0,1.16,2.54,3.67,3.67,0,0,0,2.56.88,4,4,0,0,0,2.57-.75,2.52,2.52,0,0,0,.94-2.07,2.43,2.43,0,0,0-.75-1.84,5.87,5.87,0,0,0-1.84-1.2,30.88,30.88,0,0,0-3.1-1.07,33.9,33.9,0,0,1-4.75-1.8,8.67,8.67,0,0,1-3.16-2.65,7.4,7.4,0,0,1-1.33-4.57,7.9,7.9,0,0,1,3-6.57,12.48,12.48,0,0,1,7.91-2.37,12.65,12.65,0,0,1,8,2.37,8.52,8.52,0,0,1,3.25,6.61H406.7a3.14,3.14,0,0,0-1.07-2.29,3.81,3.81,0,0,0-2.52-.83,3.14,3.14,0,0,0-2.14.7,2.56,2.56,0,0,0-.82,2,2.52,2.52,0,0,0,1.37,2.26,22.33,22.33,0,0,0,4.28,1.75,39.57,39.57,0,0,1,4.72,1.89,9.1,9.1,0,0,1,3.15,2.6A7,7,0,0,1,415,74.11a8.64,8.64,0,0,1-1.3,4.66,9.12,9.12,0,0,1-3.79,3.34,13,13,0,0,1-5.85,1.24A15.53,15.53,0,0,1,398.14,82.28Z"/><path class="cls-18" d="M441.16,67.46a8.78,8.78,0,0,1-3.67,3.48,12.9,12.9,0,0,1-6.16,1.33h-4.54V83.05h-7.31V53h11.85a13.43,13.43,0,0,1,6.07,1.24,8.54,8.54,0,0,1,3.72,3.42,9.89,9.89,0,0,1,1.24,5A9.66,9.66,0,0,1,441.16,67.46Zm-7.27-2a4.27,4.27,0,0,0,0-5.56,4.37,4.37,0,0,0-3.12-1h-4v7.53h4A4.33,4.33,0,0,0,433.89,65.47Z"/><path class="cls-18" d="M452.6,81.38a14.64,14.64,0,0,1-5.6-5.5A16.19,16.19,0,0,1,447,60a14.71,14.71,0,0,1,5.6-5.47,16.27,16.27,0,0,1,15.52,0A14.33,14.33,0,0,1,473.68,60a16.39,16.39,0,0,1,0,15.84,14.54,14.54,0,0,1-5.56,5.5,16.23,16.23,0,0,1-15.5,0Zm13.51-7.1A9.1,9.1,0,0,0,468.27,68a9.07,9.07,0,0,0-2.16-6.35,7.39,7.39,0,0,0-5.75-2.37,7.47,7.47,0,0,0-5.79,2.35A9.05,9.05,0,0,0,452.41,68a9.07,9.07,0,0,0,2.16,6.35,7.46,7.46,0,0,0,5.79,2.38A7.35,7.35,0,0,0,466.11,74.28Z"/><path class="cls-18" d="M495.09,83.05l-6.25-11.34h-1.75V83.05h-7.31V53h12.27a13.46,13.46,0,0,1,6.05,1.24,8.56,8.56,0,0,1,3.74,3.4,9.45,9.45,0,0,1,1.24,4.81,8.89,8.89,0,0,1-1.69,5.34,9.06,9.06,0,0,1-5,3.34l6.93,11.89Zm-8-16.51h4.53a4.19,4.19,0,0,0,3-1,3.73,3.73,0,0,0,1-2.78,3.61,3.61,0,0,0-1-2.7,4.19,4.19,0,0,0-3-1h-4.53Z"/><path class="cls-18" d="M529.25,53v5.86h-8V83.05H514V58.89h-8V53Z"/><path class="cls-18" d="M540.24,58.89V65H550V70.6h-9.79v6.59h11.08v5.86H532.93V53h18.39v5.86Z"/><path class="cls-18" d="M561,82.28a9.65,9.65,0,0,1-4.17-3.17,8.58,8.58,0,0,1-1.64-5H563a3.76,3.76,0,0,0,1.15,2.54,3.71,3.71,0,0,0,2.57.88,4,4,0,0,0,2.57-.75,2.52,2.52,0,0,0,.94-2.07,2.43,2.43,0,0,0-.75-1.84,5.87,5.87,0,0,0-1.84-1.2,30.88,30.88,0,0,0-3.1-1.07,33.9,33.9,0,0,1-4.75-1.8,8.67,8.67,0,0,1-3.16-2.65,7.34,7.34,0,0,1-1.33-4.57,7.87,7.87,0,0,1,3-6.57,12.48,12.48,0,0,1,7.91-2.37,12.65,12.65,0,0,1,8,2.37,8.55,8.55,0,0,1,3.25,6.61h-7.91a3.14,3.14,0,0,0-1.07-2.29,3.82,3.82,0,0,0-2.53-.83,3.13,3.13,0,0,0-2.13.7,2.71,2.71,0,0,0,.55,4.3,22.06,22.06,0,0,0,4.28,1.75,39.57,39.57,0,0,1,4.72,1.89,9.19,9.19,0,0,1,3.15,2.6,7,7,0,0,1,1.32,4.41,8.64,8.64,0,0,1-1.3,4.66,9.12,9.12,0,0,1-3.79,3.34,13,13,0,0,1-5.86,1.24A15.51,15.51,0,0,1,561,82.28Z"/><path class="cls-18" d="M232.62,94.69v5.86H220.39v6.33h9.15v5.69h-9.15v12.14h-7.32v-30Z"/><path class="cls-18" d="M243.78,119.07h9.57v5.64H236.46v-30h7.32Z"/><path class="cls-18" d="M263.3,123a14.71,14.71,0,0,1-5.61-5.49,16.19,16.19,0,0,1,0-15.84,14.76,14.76,0,0,1,5.61-5.48,16.34,16.34,0,0,1,15.52,0,14.49,14.49,0,0,1,5.56,5.48,16.39,16.39,0,0,1,0,15.84A14.65,14.65,0,0,1,278.8,123a16.23,16.23,0,0,1-15.5,0ZM276.81,116a10.38,10.38,0,0,0,0-12.68,7.38,7.38,0,0,0-5.75-2.38,7.49,7.49,0,0,0-5.8,2.36,10.44,10.44,0,0,0,0,12.72,8.2,8.2,0,0,0,11.55,0Z"/><path class="cls-18" d="M305.78,124.71l-6.24-11.33h-1.76v11.33h-7.31v-30h12.27a13.56,13.56,0,0,1,6.05,1.24,8.59,8.59,0,0,1,3.75,3.4,9.57,9.57,0,0,1,1.24,4.81,8.75,8.75,0,0,1-6.67,8.68L314,124.71Zm-8-16.5h4.54a4.12,4.12,0,0,0,3-1,3.7,3.7,0,0,0,1-2.78,3.6,3.6,0,0,0-1-2.69,4.12,4.12,0,0,0-3-1h-4.54Z"/><path class="cls-18" d="M347,96.57a13.4,13.4,0,0,1,5.49,5.29,16.72,16.72,0,0,1,0,15.67,13.29,13.29,0,0,1-5.51,5.3,17.44,17.44,0,0,1-8.28,1.88H327.42v-30h11.24A17.52,17.52,0,0,1,347,96.57Zm-2.31,19.55A8.58,8.58,0,0,0,347,109.7a8,8,0,0,0-8.77-8.76h-3.46v17.44h3.46A8.83,8.83,0,0,0,344.65,116.12Z"/><path class="cls-18" d="M365.82,100.55v6.07h9.79v5.65h-9.79v6.58h11.07v5.86H358.5v-30h18.39v5.86Z"/><path class="cls-18" d="M389,119.07h9.58v5.64H381.64v-30H389Z"/><path class="cls-18" d="M439.28,94.69l-10.65,30h-9.15l-10.65-30h7.79l7.44,22.67,7.48-22.67Z"/><path class="cls-18" d="M461,119.41H449.8l-1.8,5.3h-7.65l10.86-30h8.47l10.86,30H462.8Zm-1.88-5.64-3.72-11-3.68,11Z"/><path class="cls-18" d="M481.14,119.07h9.58v5.64H473.83v-30h7.31Z"/><path class="cls-18" d="M501.54,119.07h9.58v5.64H494.23v-30h7.31Z"/><path class="cls-18" d="M521.94,100.55v6.07h9.79v5.65h-9.79v6.58H533v5.86H514.63v-30H533v5.86Z"/></svg>