<svg id="Layer_1" data-name="Layer 1" xmlns="http://www.w3.org/2000/svg" viewBox="0 0 85.49 85.49"><defs><style>.cls-1{fill:#b2b4b6;}.cls-2{fill:#fff;}.cls-3{fill:#f9d71a;}.cls-4{fill:#89ade2;}.cls-5{fill:#8cbf1d;}.cls-6{fill:#cf000c;}.cls-7{fill:#f4f4f4;}.cls-8{fill:none;stroke:#000;stroke-linecap:round;stroke-miterlimit:10;stroke-width:3px;}.cls-9{fill:#fdfdfc;}.cls-10{fill:#cbb082;}.cls-11{fill:#b78b56;}.cls-12{fill:#fdfdfd;}.cls-13{fill:#ba834c;}.cls-14{fill:#bcbbbb;}.cls-15{fill:#e2e0e0;}.cls-16{fill:#666;}.cls-17{fill:#f2f0f0;}.cls-18{fill:#206d33;}.cls-19{fill:#0f6322;}</style></defs><title>Flor-logo-mini</title><path class="cls-1" d="M93.18,53.44c0-.72,0-1.45,0-2.19s0-1.47,0-2.19l-2.91-1.68a40.49,40.49,0,0,0-1.53-7.77l2-2.66q-.36-1-.78-2c-.29-.68-.58-1.35-.9-2l-3.3-.43a39.89,39.89,0,0,0-4.39-6.58l.86-3.21c-.49-.54-1-1.07-1.51-1.59s-1-1-1.59-1.51l-3.2.86A39.6,39.6,0,0,0,69.32,16l-.43-3.26c-.66-.31-1.33-.61-2-.89s-1.36-.55-2-.79l-2.6,2a39.59,39.59,0,0,0-7.81-1.56L52.78,8.66c-.73,0-1.46-.06-2.2-.06s-1.46,0-2.19.06l-1.63,2.82A39.7,39.7,0,0,0,38.85,13l-2.56-2c-.69.24-1.37.51-2,.79s-1.35.58-2,.89l-.42,3.18a40.34,40.34,0,0,0-6.7,4.48L22,19.58c-.54.49-1.07,1-1.59,1.51s-1,1.05-1.52,1.59l.83,3.09a39.06,39.06,0,0,0-4.52,6.76L12.06,33c-.31.65-.61,1.32-.89,2s-.54,1.36-.79,2l1.94,2.52a40,40,0,0,0-1.57,7.94L8,49.06q-.06,1.08-.06,2.19T8,53.44L10.75,55a39.73,39.73,0,0,0,1.59,8L10.4,65.55c.25.68.51,1.36.79,2s.58,1.35.89,2l3.17.42a40.4,40.4,0,0,0,4.49,6.7l-.83,3.1c.49.54,1,1.07,1.52,1.59s1.05,1,1.59,1.51l3.11-.83a40.1,40.1,0,0,0,6.72,4.48l.43,3.2c.66.31,1.33.61,2,.89s1.37.54,2,.79l2.58-2A39.85,39.85,0,0,0,46.75,91l1.64,2.84q1.09.06,2.19.06c.74,0,1.47,0,2.2-.06L54.43,91a39.64,39.64,0,0,0,7.83-1.56l2.62,2c.68-.24,1.37-.51,2.05-.79s1.34-.58,2-.89l.43-3.28a39.49,39.49,0,0,0,6.57-4.41l3.22.86c.54-.49,1.07-1,1.59-1.51s1-1,1.51-1.59l-.86-3.23a39.69,39.69,0,0,0,4.4-6.6l3.32-.44c.31-.65.6-1.32.88-2s.55-1.36.79-2l-2-2.65a40.27,40.27,0,0,0,1.52-7.72Z" transform="translate(-7.84 -8.51)"/><circle class="cls-1" cx="42.68" cy="42.74" r="31.98"/><circle class="cls-2" cx="42.68" cy="42.72" r="31.98"/><path class="cls-3" d="M18.61,49.21H82.43a32,32,0,0,0-63.82,0Z" transform="translate(-7.84 -8.51)"/><rect class="cls-4" x="24.85" y="27.58" width="34.62" height="13.12"/><path class="cls-5" d="M22.71,67a32,32,0,0,0,55.61,0Z" transform="translate(-7.84 -8.51)"/><path d="M50.52,83.26A32,32,0,1,1,73.2,73.88,31.89,31.89,0,0,1,50.52,83.26Zm0-63.95a31.87,31.87,0,1,0,22.54,9.33A31.7,31.7,0,0,0,50.52,19.31Z" transform="translate(-7.84 -8.51)"/><path class="cls-6" d="M18.61,51.22a31.91,31.91,0,0,0,3.47,14.53h57a31.91,31.91,0,0,0,3.48-14.53c0-.22,0-.44,0-.67H18.62C18.61,50.78,18.61,51,18.61,51.22Z" transform="translate(-7.84 -8.51)"/><path d="M50.52,83.29A32,32,0,1,1,73.2,73.91,31.89,31.89,0,0,1,50.52,83.29Zm0-63.95a31.89,31.89,0,1,0,22.54,9.34A31.67,31.67,0,0,0,50.52,19.34Z" transform="translate(-7.84 -8.51)"/><path d="M55.83,68.6H44.16A11.58,11.58,0,0,1,32.59,57V36H67.41V57A11.59,11.59,0,0,1,55.83,68.6Zm-23-32.42V57A11.4,11.4,0,0,0,44.16,68.41H55.83A11.39,11.39,0,0,0,67.21,57V36.18Z" transform="translate(-7.84 -8.51)"/><path class="cls-7" d="M57.27,31.82a1,1,0,0,0,.23-1.07,1.4,1.4,0,0,0-.27-.34l-1.16-1.16-2.34-2.34H50.85l-.39.4a1.56,1.56,0,0,1-2.19,0,.78.78,0,0,1-.23-.54.76.76,0,0,1,.23-.54l1.62-1.62H48.33a1.68,1.68,0,0,0-1.18.49l-.62.62a1.68,1.68,0,0,1-1.18.49H39.76l0,5.41H45a.8.8,0,0,0,.24.44.82.82,0,0,0,1.08.09l.1-.08-.09.08,0,0a.86.86,0,0,0-.24.6.84.84,0,0,0,1.43.59l.27-.27a.85.85,0,0,0-.23.58.84.84,0,0,0,1.44.6l.38-.38a.81.81,0,0,0-.25.59.83.83,0,0,0,.25.6.86.86,0,0,0,1.19,0l.48-.48,0,0,.59.58a.89.89,0,0,0,.62.26.91.91,0,0,0,.63-.26.89.89,0,0,0,0-1.22l0,0,0,0,.44.44a.89.89,0,0,0,1.24,0,.88.88,0,0,0,0-1.25l-.16-.17h0l.57.57a.91.91,0,0,0,.63.26.89.89,0,0,0,.62-1.51l-.37-.37a1,1,0,0,0,.63.22A1,1,0,0,0,57.27,31.82Z" transform="translate(-7.84 -8.51)"/><path class="cls-7" d="M62.94,31.64H57.4a1,1,0,0,0,.18-.61,1.09,1.09,0,0,0-.35-.62l-1.16-1.16-2.34-2.34H50.85l-.39.4a1.56,1.56,0,0,1-2.19,0,.78.78,0,0,1-.23-.54.76.76,0,0,1,.23-.54l1.62-1.62H54a1.68,1.68,0,0,1,1.18.49l.62.62A1.66,1.66,0,0,0,57,26.2h6" transform="translate(-7.84 -8.51)"/><path d="M62.94,31.79H57.13l.16-.23a1,1,0,0,0,.15-.52,1,1,0,0,0-.31-.53l-3.46-3.46H50.91l-.35.36a1.69,1.69,0,0,1-2.39,0,.89.89,0,0,1-.27-.65.87.87,0,0,1,.27-.64l1.66-1.66H54a1.78,1.78,0,0,1,1.28.54l.62.61a1.51,1.51,0,0,0,1.08.45h6a.14.14,0,0,1,.14.14.15.15,0,0,1-.14.15H57a1.83,1.83,0,0,1-1.29-.53l-.61-.62A1.51,1.51,0,0,0,54,24.74H50l-1.58,1.59a.58.58,0,0,0-.18.43.6.6,0,0,0,.18.44,1.37,1.37,0,0,0,1,.41,1.39,1.39,0,0,0,1-.41l.43-.43h3l3.54,3.53a1.3,1.3,0,0,1,.4.71,1.19,1.19,0,0,1-.09.49h5.3a.14.14,0,0,1,.14.14A.15.15,0,0,1,62.94,31.79Z" transform="translate(-7.84 -8.51)"/><polygon points="41.91 16.44 41.91 15.96 42.06 15.95 42.4 15.95 41.91 16.44"/><path d="M45.87,32.44a1,1,0,0,1-.7-1.68l1.31-1.31a1,1,0,0,1,1.39,0,1,1,0,0,1,.29.7.94.94,0,0,1-.29.69h0l-1.3,1.31A1,1,0,0,1,45.87,32.44Zm1.31-3a.74.74,0,0,0-.5.2L45.38,31a.71.71,0,0,0,0,1,.7.7,0,0,0,1,0l1.31-1.31a.71.71,0,0,0,0-1A.71.71,0,0,0,47.18,29.45Z" transform="translate(-7.84 -8.51)"/><path d="M46.93,33.76a1,1,0,0,1-.7-.29,1,1,0,0,1,0-1.39l1.44-1.44a1,1,0,0,1,1.68.7.94.94,0,0,1-.29.69l-1.44,1.44A.94.94,0,0,1,46.93,33.76Zm1.44-3.12a.74.74,0,0,0-.5.2l-1.44,1.44a.71.71,0,0,0,0,1,.72.72,0,0,0,.5.2.7.7,0,0,0,.49-.2l1.44-1.44a.71.71,0,0,0,0-1A.71.71,0,0,0,48.37,30.64Z" transform="translate(-7.84 -8.51)"/><path d="M48.4,34.66A1,1,0,0,1,47.71,33l1-1a1,1,0,1,1,1.4,1.39l-1,1A1,1,0,0,1,48.4,34.66Zm1-2.68a.69.69,0,0,0-.49.21l-1,1a.68.68,0,0,0,0,1,.71.71,0,0,0,.49.21.73.73,0,0,0,.5-.21l1-1A.7.7,0,0,0,49.4,32Zm.59,1.3h0Z" transform="translate(-7.84 -8.51)"/><path d="M50,35.47a1,1,0,0,1-1-1,1,1,0,0,1,.29-.7l.47-.48a1,1,0,0,1,1.4,0,1,1,0,0,1,0,1.4l-.48.47A1,1,0,0,1,50,35.47Zm.48-2.16a.67.67,0,0,0-.49.21l-.48.47a.72.72,0,0,0-.2.5.7.7,0,0,0,.2.49.71.71,0,0,0,1,0l.47-.48a.68.68,0,0,0,0-1A.67.67,0,0,0,50.45,33.31Z" transform="translate(-7.84 -8.51)"/><path d="M56.56,32.25a1.17,1.17,0,0,1-.82-.33l-2.38-2.39a.14.14,0,0,1,0-.21.15.15,0,0,1,.2,0L56,31.71a.86.86,0,1,0,1.21-1.21L53.68,27a.14.14,0,0,1,.2-.2l3.49,3.48a1.15,1.15,0,0,1,0,1.63A1.17,1.17,0,0,1,56.56,32.25Z" transform="translate(-7.84 -8.51)"/><path d="M55.68,33.91a1,1,0,0,1-.73-.3l-2.72-2.73a.14.14,0,0,1,.2-.2l2.72,2.72a.74.74,0,0,0,1.05,0,.72.72,0,0,0,.21-.52.73.73,0,0,0-.21-.52l-2.82-2.82a.14.14,0,0,1,.2-.2l2.82,2.82a1,1,0,0,1,.3.72,1,1,0,0,1-.3.73A1,1,0,0,1,55.68,33.91Z" transform="translate(-7.84 -8.51)"/><path d="M54,34.75a1,1,0,0,1-.73-.3l-2.53-2.53a.14.14,0,0,1,0-.21.15.15,0,0,1,.2,0l2.54,2.54a.74.74,0,1,0,1-1l-2.3-2.31a.14.14,0,1,1,.2-.2L54.74,33a1,1,0,0,1,.3.73,1,1,0,0,1-1,1Z" transform="translate(-7.84 -8.51)"/><path d="M52.3,35.54a1,1,0,0,1-.72-.3L51,34.66a.14.14,0,0,1,0-.21.15.15,0,0,1,.2,0l.59.59a.75.75,0,0,0,1,0,.74.74,0,0,0,0-1l-2.06-2.06a.15.15,0,0,1,0-.2.13.13,0,0,1,.2,0L53,33.79a1,1,0,0,1,0,1.45A1,1,0,0,1,52.3,35.54Z" transform="translate(-7.84 -8.51)"/><path d="M44.51,26.34H39.76a.14.14,0,0,1-.14-.14.15.15,0,0,1,.14-.15h5.59a1.51,1.51,0,0,0,1.08-.45l.62-.61a1.76,1.76,0,0,1,1.28-.54h4.09a.15.15,0,0,1,.15.15.15.15,0,0,1-.15.14H48.33a1.51,1.51,0,0,0-1.08.45l-.62.62a1.81,1.81,0,0,1-1.28.53Z" transform="translate(-7.84 -8.51)"/><path class="cls-8" d="M45.05,31.61" transform="translate(-7.84 -8.51)"/><path class="cls-1" d="M39.75,25.41H31.59a32.1,32.1,0,0,0-7,7H39.75Z" transform="translate(-7.84 -8.51)"/><rect class="cls-7" x="31.91" y="16.14" width="4.24" height="8.56"/><rect class="cls-7" x="58.55" y="24.65" width="4.24" height="8.56" transform="translate(113.5 49.35) rotate(-180)"/><path d="M44.09,33.3H39.66V24.55h4.43Zm-4.24-.19h4V24.74h-4Z" transform="translate(-7.84 -8.51)"/><path d="M62.89,33.3H58.45V24.55h4.44Zm-4.25-.19h4V24.74h-4Z" transform="translate(-7.84 -8.51)"/><path class="cls-1" d="M62.79,32.44H76.43a32.14,32.14,0,0,0-7-7H62.79Z" transform="translate(-7.84 -8.51)"/><rect class="cls-3" x="29.48" y="62.37" width="26.58" height="4.73"/><polygon class="cls-3" points="52.17 68.81 52.17 67.11 56.06 67.11 52.17 68.81"/><polygon class="cls-3" points="59.36 64.33 57.45 66.47 59.36 68.81 52.11 68.81 52.11 67.11 56.06 67.11 56.06 64.33 59.36 64.33"/><polygon class="cls-3" points="33.31 68.82 33.31 67.11 29.42 67.11 33.31 68.82"/><polygon class="cls-3" points="26.12 64.33 28.03 66.47 26.12 68.82 33.37 68.82 33.37 67.11 29.42 67.11 29.42 64.33 26.12 64.33"/><path d="M67.41,50.54H32.59V47.17l0,0a3.07,3.07,0,0,1,.6-.22,3.86,3.86,0,0,1,.74-.1l.34,0a16.23,16.23,0,0,0,2.26-.4,17.05,17.05,0,0,0,4.32-1.73l.19-.12a4.34,4.34,0,0,1,2.19-.78l.21,0a1.44,1.44,0,0,0,.51,0,1.58,1.58,0,0,0,.68-.56h0a17.3,17.3,0,0,1,2.42-2.42,1.2,1.2,0,0,1,.58-.32,1.23,1.23,0,0,1,.43,0,2.3,2.3,0,0,0,.26,0h0a1.62,1.62,0,0,0,.79-.29,2.85,2.85,0,0,1,.64-.29,2.39,2.39,0,0,1,1.43.24,3.26,3.26,0,0,0,1,.27l.34,0a2.82,2.82,0,0,1,.42,0,2.89,2.89,0,0,1,1.58.88l.09.08a17.89,17.89,0,0,0,6.49,3.41,47.65,47.65,0,0,0,6.13,1.34h.08Zm-34.63-.19H67.21V46.27a46.76,46.76,0,0,1-6.07-1.33h0a17.84,17.84,0,0,1-6.55-3.45l-.1-.08A2.65,2.65,0,0,0,53,40.58l-.4,0-.35,0a3.55,3.55,0,0,1-1.11-.28,2.16,2.16,0,0,0-1.32-.23,2.4,2.4,0,0,0-.59.27,1.83,1.83,0,0,1-.88.31l-.3,0a1.09,1.09,0,0,0-.36,0,1.14,1.14,0,0,0-.49.27,18.14,18.14,0,0,0-2.4,2.4,1.61,1.61,0,0,1-.78.63,1.58,1.58,0,0,1-.57,0l-.21,0a4.13,4.13,0,0,0-2.08.76l-.2.11a17.33,17.33,0,0,1-4.37,1.76,17.84,17.84,0,0,1-2.28.4L34,47a4.06,4.06,0,0,0-.7.09,2.82,2.82,0,0,0-.51.19Z" transform="translate(-7.84 -8.51)"/><path class="cls-9" d="M41.46,45.16a.77.77,0,0,1,.17.81c-.06.18-.18.37-.11.54a.39.39,0,0,0,.2.22,1.63,1.63,0,0,0,1.49-.25l1.23-.68a3,3,0,0,0,.91-.65,1,1,0,0,0,.19-1c-.11-.23-.34-.42-.31-.67a.75.75,0,0,1,.23-.38,7,7,0,0,1,2.32-1.5.36.36,0,0,1,.35,0,.27.27,0,0,1,.09.2c.06.61-.73.91-1,1.44a.27.27,0,0,0-.05.18c.05.28.63,0,.72.3a6.92,6.92,0,0,1-.86.65,1.18,1.18,0,0,0-.52.9,1,1,0,0,0,.84.86,2.41,2.41,0,0,0,1.27-.19.77.77,0,0,0,.31-.19c.2-.24,0-.6-.1-.89a1.06,1.06,0,0,1-.09-.72.54.54,0,0,1,.54-.4c.59.09.51,1.23,1.1,1.28.22,0,.45-.16.66-.08s.27.45.2.71-.16.58,0,.78a.75.75,0,0,0,.29.16c.37.13.84.25,1.13,0s.14-1,.43-1.37c.14-.21.4-.3.59-.46a1.13,1.13,0,0,0,.23-1.41l1.35.6c.51.23,1.1.58,1.11,1.14,0,.26-.13.54,0,.79a.89.89,0,0,0,.32.32,4.35,4.35,0,0,0,1.61.8.56.56,0,0,0,.46-.08c.25-.23,0-.63-.27-.84s-.57-.52-.41-.81l2.3,1.3c.34.2.85.37,1.08,0s0-.63-.15-.91a4.27,4.27,0,0,0,3.5.11c-1.22-.25-2.42-.53-3.6-.89a18,18,0,0,1-6.52-3.43A3,3,0,0,0,53,40.49c-.25,0-.5,0-.75,0-.84,0-1.63-.7-2.45-.5-.51.12-.92.58-1.45.57a3.85,3.85,0,0,0-.67-.05,1.25,1.25,0,0,0-.54.3,17.15,17.15,0,0,0-2.41,2.41,1.56,1.56,0,0,1-.73.6,2.36,2.36,0,0,1-.75,0,4.55,4.55,0,0,0-2.33.88c-.21.11-.41.23-.62.33C40.73,45,41.13,44.83,41.46,45.16Z" transform="translate(-7.84 -8.51)"/><path class="cls-10" d="M64.77,45.74a4.27,4.27,0,0,1-3.5-.11c.18.28.35.65.15.91s-.74.15-1.08,0L58,45.19c-.16.29.15.61.41.81s.52.61.27.84a.56.56,0,0,1-.46.08,4.35,4.35,0,0,1-1.61-.8.89.89,0,0,1-.32-.32c-.11-.25,0-.53,0-.79,0-.56-.6-.91-1.11-1.14l-1.35-.6a1.13,1.13,0,0,1-.23,1.41c-.19.16-.45.25-.59.46-.29.39-.07,1-.43,1.37s-.76.15-1.13,0a.75.75,0,0,1-.29-.16c-.19-.2-.1-.52,0-.78s.06-.62-.2-.71-.44.09-.66.08c-.59-.05-.51-1.19-1.1-1.28a.54.54,0,0,0-.54.4,1.06,1.06,0,0,0,.09.72c.12.29.3.65.1.89a.77.77,0,0,1-.31.19,2.41,2.41,0,0,1-1.27.19,1,1,0,0,1-.84-.86,1.18,1.18,0,0,1,.52-.9,6.92,6.92,0,0,0,.86-.65c-.09-.27-.67,0-.72-.3a.27.27,0,0,1,.05-.18c.32-.53,1.11-.83,1-1.44a.27.27,0,0,0-.09-.2.36.36,0,0,0-.35,0,7,7,0,0,0-2.32,1.5.75.75,0,0,0-.23.38c0,.25.2.44.31.67a1,1,0,0,1-.19,1,3,3,0,0,1-.91.65l-1.23.68a1.63,1.63,0,0,1-1.49.25.39.39,0,0,1-.2-.22c-.07-.17,0-.36.11-.54a.77.77,0,0,0-.17-.81c-.33-.33-.73-.13-1.13-.09a16.65,16.65,0,0,1-3.73,1.41,16.14,16.14,0,0,1-2.27.41,7.48,7.48,0,0,0-1.06.12,3,3,0,0,0-.59.22v3.21H67.31V46.19C66.46,46.05,65.61,45.9,64.77,45.74Z" transform="translate(-7.84 -8.51)"/><path d="M50.58,94c-.73,0-1.47,0-2.19,0h-.06L46.69,91.1a40.05,40.05,0,0,1-7.76-1.52l-2.58,2-.05,0c-.69-.25-1.38-.51-2-.79s-1.35-.58-2-.89l-.05,0-.43-3.21a39.92,39.92,0,0,1-6.65-4.44L22,83l0,0c-.54-.49-1.08-1-1.59-1.52s-1-1-1.52-1.59l0,0,.83-3.1a39.89,39.89,0,0,1-4.45-6.64L12,69.69l0,0c-.31-.66-.61-1.33-.89-2s-.54-1.36-.79-2l0,0L12.23,63a40.64,40.64,0,0,1-1.57-7.9L7.9,53.5v0c0-.73,0-1.47,0-2.2s0-1.47,0-2.2v0l2.76-1.6a41,41,0,0,1,1.55-7.86L10.28,37V37c.25-.69.51-1.38.79-2.06s.58-1.35.89-2l0,0,3.15-.42a40.06,40.06,0,0,1,4.48-6.69l-.82-3.09,0,0c.49-.54,1-1.08,1.52-1.6s1.05-1,1.59-1.51l0,0,3.1.82a40.4,40.4,0,0,1,6.64-4.43l.42-3.19,0,0c.66-.31,1.34-.61,2-.89s1.37-.55,2-.79l0,0,2.57,2a39.88,39.88,0,0,1,7.83-1.53l1.63-2.83h.06c1.45-.07,2.94-.07,4.39,0h0l1.64,2.84a39.75,39.75,0,0,1,7.74,1.54l2.61-2,.05,0c.68.25,1.37.51,2,.79s1.35.58,2,.89l0,0,.44,3.27A39.57,39.57,0,0,1,76,20.33l3.21-.85,0,0c.55.49,1.08,1,1.6,1.51s1,1.06,1.51,1.6l0,0-.86,3.21a40.52,40.52,0,0,1,4.34,6.51l3.31.43,0,0c.31.66.61,1.34.89,2s.55,1.36.8,2.05v0l-2,2.65a39.46,39.46,0,0,1,1.52,7.7L93.27,49v0c0,.73.06,1.47.06,2.2s0,1.47-.06,2.2v0l-2.91,1.68a39.84,39.84,0,0,1-1.51,7.65l2,2.65,0,0c-.24.69-.51,1.38-.79,2s-.58,1.36-.89,2l0,0-3.31.44a40.36,40.36,0,0,1-4.36,6.53l.86,3.23,0,0c-.49.54-1,1.08-1.51,1.59s-1,1-1.6,1.52l0,0L76,82.17a40.63,40.63,0,0,1-6.51,4.36L69,89.82l0,0c-.66.31-1.33.61-2,.89s-1.36.55-2,.79l0,0-2.62-2a40,40,0,0,1-7.76,1.55l-1.65,2.86h0C52.05,94,51.31,94,50.58,94Zm-2.13-.24c1.41.07,2.85.07,4.27,0l1.65-2.85h.05a40.48,40.48,0,0,0,7.81-1.56l.05,0,2.62,2c.66-.24,1.33-.49,2-.77s1.31-.56,2-.86l.44-3.28,0,0A40.06,40.06,0,0,0,75.87,82l0,0,3.21.86c.53-.47,1-1,1.55-1.47s1-1,1.48-1.55l-.87-3.22,0,0A40.31,40.31,0,0,0,85.71,70l0,0L89,69.47c.3-.65.59-1.3.87-2s.53-1.32.76-2l-2-2.66v0a39.46,39.46,0,0,0,1.52-7.7v0l2.9-1.68c0-.71.06-1.43.06-2.14s0-1.43-.06-2.14l-2.9-1.68v0a39.38,39.38,0,0,0-1.53-7.75v0l2-2.65c-.24-.67-.5-1.34-.77-2S89.32,33.63,89,33l-3.3-.44,0,0A40,40,0,0,0,81.32,26l0,0,.86-3.21c-.48-.53-1-1.05-1.48-1.55s-1-1-1.55-1.47l-3.19.85,0,0a40.15,40.15,0,0,0-6.61-4.43l0,0-.43-3.26c-.64-.3-1.3-.59-2-.86s-1.32-.53-2-.77l-2.6,2h0a39,39,0,0,0-7.79-1.55h0L52.72,8.75c-1.42-.07-2.86-.07-4.27,0l-1.63,2.82h0a39.78,39.78,0,0,0-7.89,1.55l-.05,0-2.56-2c-.67.23-1.34.49-2,.77s-1.32.56-2,.86L31.9,16l0,0a40,40,0,0,0-6.69,4.46l0,0L22,19.69c-.52.47-1,1-1.55,1.47s-1,1-1.47,1.55l.82,3.08,0,0a40.64,40.64,0,0,0-4.51,6.74l0,0L12.12,33c-.3.65-.59,1.3-.86,2s-.53,1.32-.77,2l1.94,2.52,0,0a40.09,40.09,0,0,0-1.56,7.92v.05L8.08,49.11c0,.71-.05,1.43-.05,2.14s0,1.43.05,2.14L10.85,55V55a39.8,39.8,0,0,0,1.58,8v0l-1.93,2.53c.24.67.5,1.34.77,2s.56,1.31.87,2l3.16.42,0,0a39,39,0,0,0,4.49,6.68l0,0L19,79.79c.48.53,1,1,1.47,1.55s1,1,1.55,1.47L25.15,82l0,0a39.56,39.56,0,0,0,6.71,4.47l0,0,.43,3.2c.64.3,1.3.59,2,.86s1.33.53,2,.77l2.57-2,0,0a39.92,39.92,0,0,0,7.82,1.53h.05Z" transform="translate(-7.84 -8.51)"/><path class="cls-11" d="M65.56,46.56l-3.77,1a5.76,5.76,0,0,1-1.59.27c-.85,0-1.67-.41-2.51-.36a13.25,13.25,0,0,0-2.32.73c-1.53.41-3.14-.14-4.72-.24-2.26-.14-4.57.66-6.77.11-1.15-.29-2.26-.94-3.44-.8s-2.3,1.15-3.55,1.08a5.72,5.72,0,0,1-2.07-.77,2.39,2.39,0,0,0-2.14-.15v3H67.31V46.09Z" transform="translate(-7.84 -8.51)"/><path class="cls-12" d="M55.83,69.08H44.16a12.07,12.07,0,0,1-12-12V35.51H67.89V57A12.07,12.07,0,0,1,55.83,69.08ZM33.26,36.66V57a10.91,10.91,0,0,0,10.9,10.9H55.83A10.92,10.92,0,0,0,66.74,57V36.66Z" transform="translate(-7.84 -8.51)"/><path d="M39.38,72.87a.76.76,0,0,1,.67-.38.81.81,0,0,1,.44.12.76.76,0,0,1,.27.34h-.24a.46.46,0,0,0-.18-.21.54.54,0,0,0-.29-.07.57.57,0,0,0-.29.07.58.58,0,0,0-.2.21.7.7,0,0,0-.07.33.66.66,0,0,0,.07.32.55.55,0,0,0,.49.29.55.55,0,0,0,.29-.08.46.46,0,0,0,.18-.21h.24a.71.71,0,0,1-.27.34.81.81,0,0,1-.44.12.76.76,0,0,1-.67-.38.88.88,0,0,1-.1-.4A.92.92,0,0,1,39.38,72.87Z" transform="translate(-7.84 -8.51)"/><path d="M41.92,73.7h-.67l-.12.35h-.21l.55-1.53h.24l.55,1.53h-.21Zm-.05-.16-.28-.77-.28.77Z" transform="translate(-7.84 -8.51)"/><path d="M43.53,72.51l-.5,1v.58h-.2v-.58l-.5-1h.22l.38.78.38-.78Z" transform="translate(-7.84 -8.51)"/><path d="M44.61,73.7h-.67l-.12.35H43.6l.56-1.53h.23L45,74.05h-.22Zm-.06-.16-.28-.77-.27.77Z" transform="translate(-7.84 -8.51)"/><path d="M46.7,72.52v1.53h-.2V72.91L46,74.05h-.15l-.51-1.14v1.14h-.2V72.52h.22l.56,1.26.57-1.26Z" transform="translate(-7.84 -8.51)"/><path d="M47.92,73.32a.49.49,0,0,1,.11.14.33.33,0,0,1,0,.17.37.37,0,0,1-.06.21.31.31,0,0,1-.17.15.6.6,0,0,1-.27.06H47V72.51h.55a.76.76,0,0,1,.27,0,.37.37,0,0,1,.16.14.36.36,0,0,1,.06.2.36.36,0,0,1-.08.23.35.35,0,0,1-.19.12A.41.41,0,0,1,47.92,73.32Zm-.72-.15h.34a.33.33,0,0,0,.21-.06.22.22,0,0,0,.08-.19.22.22,0,0,0-.08-.18.34.34,0,0,0-.22-.07H47.2Zm.59.64a.26.26,0,0,0,.08-.2.25.25,0,0,0-.09-.2.33.33,0,0,0-.23-.07H47.2v.54h.35A.36.36,0,0,0,47.79,73.81Z" transform="translate(-7.84 -8.51)"/><path d="M48.51,72.67v.52h.56v.16h-.56v.53h.62v.17h-.82V72.51h.82v.16Z" transform="translate(-7.84 -8.51)"/><path d="M50.78,73.15v.17H49.9v-.17Z" transform="translate(-7.84 -8.51)"/><path d="M51.85,72.67v.52h.56v.16h-.56v.53h.63v.17h-.83V72.51h.83v.16Z" transform="translate(-7.84 -8.51)"/><path d="M52.77,72.87a.81.81,0,0,1,.27-.28.76.76,0,0,1,.39-.1.78.78,0,0,1,.44.12.72.72,0,0,1,.28.34h-.24a.55.55,0,0,0-.19-.21.52.52,0,0,0-.29-.07.59.59,0,0,0-.29.07.58.58,0,0,0-.2.21.84.84,0,0,0-.07.33.79.79,0,0,0,.07.32.58.58,0,0,0,.2.21.6.6,0,0,0,.29.08.52.52,0,0,0,.29-.08.55.55,0,0,0,.19-.21h.24a.67.67,0,0,1-.28.34.78.78,0,0,1-.44.12A.76.76,0,0,1,53,74a.81.81,0,0,1-.27-.28.77.77,0,0,1-.1-.4A.8.8,0,0,1,52.77,72.87Z" transform="translate(-7.84 -8.51)"/><path d="M54.6,72.51v1a.41.41,0,0,0,.1.31.4.4,0,0,0,.28.1.39.39,0,0,0,.27-.1.41.41,0,0,0,.1-.31v-1h.2v1a.61.61,0,0,1-.07.32.5.5,0,0,1-.21.2.73.73,0,0,1-.3.06.68.68,0,0,1-.29-.06.45.45,0,0,1-.21-.2.61.61,0,0,1-.07-.32v-1Z" transform="translate(-7.84 -8.51)"/><path d="M56.75,73.7h-.67l-.12.35h-.21l.55-1.53h.23l.56,1.53h-.21Zm0-.16-.28-.77-.28.77Z" transform="translate(-7.84 -8.51)"/><path d="M58.2,72.6a.73.73,0,0,1,.28.27.78.78,0,0,1,.1.41.76.76,0,0,1-.1.41.66.66,0,0,1-.28.27,1,1,0,0,1-.43.09h-.48V72.51h.48A1,1,0,0,1,58.2,72.6Zm0,1.12a.61.61,0,0,0,.16-.44.56.56,0,0,0-.61-.61h-.28v1.21h.28A.61.61,0,0,0,58.22,73.72Z" transform="translate(-7.84 -8.51)"/><path d="M59.11,74a.75.75,0,0,1-.28-.28.77.77,0,0,1-.1-.4.8.8,0,0,1,.1-.41.75.75,0,0,1,.28-.28.81.81,0,0,1,.78,0,.75.75,0,0,1,.28.28.8.8,0,0,1,.1.41.77.77,0,0,1-.1.4.79.79,0,0,1-1.06.28Zm.68-.15a.58.58,0,0,0,.2-.21.66.66,0,0,0,.08-.32A.7.7,0,0,0,60,73a.58.58,0,0,0-.2-.21.57.57,0,0,0-.29-.07.54.54,0,0,0-.29.07A.45.45,0,0,0,59,73a.7.7,0,0,0-.08.33.66.66,0,0,0,.08.32.45.45,0,0,0,.2.21.55.55,0,0,0,.29.08A.57.57,0,0,0,59.79,73.81Z" transform="translate(-7.84 -8.51)"/><path d="M61.3,74.05l-.37-.63h-.24v.63h-.2V72.51H61a.65.65,0,0,1,.29.06.4.4,0,0,1,.18.16.44.44,0,0,1,.06.23.45.45,0,0,1-.09.28.41.41,0,0,1-.28.16l.39.65Zm-.61-.79H61a.33.33,0,0,0,.24-.08.29.29,0,0,0,.08-.22.25.25,0,0,0-.08-.21.33.33,0,0,0-.24-.08h-.3Z" transform="translate(-7.84 -8.51)"/><path d="M64,75.71H37.22V70.78H64Zm-26.58-.19H63.8V71H37.41Z" transform="translate(-7.84 -8.51)"/><path d="M59.91,77.47v-2h4.44Zm.2-1.76v1.46l3.33-1.46Z" transform="translate(-7.84 -8.51)"/><path d="M67.4,77.42H59.85v-1.9H63.8V72.73h3.62l-2,2.24ZM60,77.23h7L65.16,75l1.83-2H64v2.78H60Z" transform="translate(-7.84 -8.51)"/><path d="M41.24,77.47l-4.44-2h4.44Zm-3.52-1.76,3.33,1.47V75.71Z" transform="translate(-7.84 -8.51)"/><path d="M41.31,77.42H33.75l2-2.44-2-2.24h3.62v2.78h4Zm-7.15-.19h7V75.71h-4V72.93h-3L36,75Z" transform="translate(-7.84 -8.51)"/><path class="cls-13" d="M51.08,57.41a.17.17,0,0,1,0-.1s.27.12.32.14l.41.16a3.75,3.75,0,0,0,.86.22,1.83,1.83,0,0,0,1.49-.44,1.13,1.13,0,0,0,.14-1.46c-.29-.33-.8-.45-1-.85a.92.92,0,0,1,.09-.82,2.46,2.46,0,0,1,1.9-1.1,14.4,14.4,0,0,1,2.27.08,6.78,6.78,0,0,0,4.8-1.44,1.25,1.25,0,0,0,.55-1s0,0,0,0a1.46,1.46,0,0,1,.12,1.34,4.92,4.92,0,0,1-2.27,2.62,10.64,10.64,0,0,1-1.06.55h0a8,8,0,0,0,3.3-2,2.23,2.23,0,0,1-.45,1.22,5.14,5.14,0,0,1-2.32,1.87h.07a4.9,4.9,0,0,0,2.1-.71,1.26,1.26,0,0,1-.52.94,3.87,3.87,0,0,1-3.11.92l-.07,0a3.36,3.36,0,0,0,1.84,1,5,5,0,0,1-3.62,0l0,0a3.74,3.74,0,0,0,1.12,1.29c-.07.14-.27.15-.43.13a15,15,0,0,1-2.4-.47h0l.48.48s.06.07,0,.1a.05.05,0,0,1-.06,0,.92.92,0,0,1-.63-.06,4.32,4.32,0,0,1-1.34-.75,3.26,3.26,0,0,1-.52-.53c-.14-.21-.4-.06-.58,0a1.11,1.11,0,0,1-.5.24.69.69,0,0,1-.25,0,1.21,1.21,0,0,1-.62-.24.89.89,0,0,1-.28-.61C51,58,51.16,57.67,51.08,57.41Z" transform="translate(-7.84 -8.51)"/><path d="M55.56,60.28a1.28,1.28,0,0,1-.47-.1,4.38,4.38,0,0,1-1.36-.77,2.82,2.82,0,0,1-.54-.55c-.07-.1-.2-.08-.44.08l-.06,0a1.13,1.13,0,0,1-.5.22,1.18,1.18,0,0,1-.27,0,1.4,1.4,0,0,1-.67-.27,1,1,0,0,1-.3-.68,1.31,1.31,0,0,1,0-.34,1,1,0,0,0,0-.45h0l.09,0-.09,0a.19.19,0,0,1,0-.18c.06-.09.15,0,.36.07l.08,0,.4.16a3.54,3.54,0,0,0,.84.21,1.75,1.75,0,0,0,1.42-.41A1,1,0,0,0,54.21,56a1.67,1.67,0,0,0-.41-.32,1.32,1.32,0,0,1-.57-.55,1,1,0,0,1,.1-.91,2.5,2.5,0,0,1,2-1.14,8,8,0,0,1,1.62,0l.67,0a6.66,6.66,0,0,0,4.73-1.41,1.14,1.14,0,0,0,.51-.92v0l0-.07h.05a.15.15,0,0,1,.13.06,1.61,1.61,0,0,1,.15,1.44,4.66,4.66,0,0,1-1.77,2.3A5.63,5.63,0,0,0,63,53.27l.16-.2v.26a2.25,2.25,0,0,1-.47,1.27A5.21,5.21,0,0,1,61,56.24a4.94,4.94,0,0,0,1.51-.61l.13-.09v.16a1.31,1.31,0,0,1-.54,1,4,4,0,0,1-3,1,3.7,3.7,0,0,0,1.61.8l.26.08-.26.1a5,5,0,0,1-3.51,0,3.9,3.9,0,0,0,1,1.08l.06,0,0,.07c-.08.15-.26.21-.53.18a13.57,13.57,0,0,1-2.08-.38l.25.25a.18.18,0,0,1,.06.21.14.14,0,0,1-.12.08A.59.59,0,0,1,55.56,60.28Zm-2.48-1.67a.31.31,0,0,1,.27.15,2.63,2.63,0,0,0,.5.5,4.06,4.06,0,0,0,1.31.74.93.93,0,0,0,.54.07l-.49-.5-.15-.22.25.08a13.82,13.82,0,0,0,2.39.46.47.47,0,0,0,.28,0,3.71,3.71,0,0,1-1.07-1.26l0-.07.13-.11.06,0a4.8,4.8,0,0,0,3.28.13,3.07,3.07,0,0,1-1.62-1l-.23-.33.41.22a3.78,3.78,0,0,0,3-.9,1.35,1.35,0,0,0,.47-.7,4.75,4.75,0,0,1-2,.63h-.59l.48-.19a5,5,0,0,0,2.27-1.84,2.54,2.54,0,0,0,.41-.88,8.8,8.8,0,0,1-3.14,1.82h0l-.61.05.52-.23a8.75,8.75,0,0,0,1.05-.55A4.83,4.83,0,0,0,63,52.15a1.6,1.6,0,0,0,0-1.08,1.61,1.61,0,0,1-.56.8,6.91,6.91,0,0,1-4.87,1.47l-.67-.05a7.7,7.7,0,0,0-1.59,0,2.35,2.35,0,0,0-1.83,1.05.87.87,0,0,0-.09.74,1.32,1.32,0,0,0,.5.46,2,2,0,0,1,.46.36,1.21,1.21,0,0,1-.14,1.58,1.88,1.88,0,0,1-1.57.47,3.77,3.77,0,0,1-.88-.22l-.41-.16-.09,0-.08,0a1.42,1.42,0,0,1,0,.46,1.12,1.12,0,0,0,0,.31.77.77,0,0,0,.24.54A1.24,1.24,0,0,0,52,59l.22,0a1,1,0,0,0,.4-.19l.06,0A.88.88,0,0,1,53.08,58.61Z" transform="translate(-7.84 -8.51)"/><path class="cls-14" d="M50.6,50.63H47.73c-1.65,0-3,4-3,8.94s1.33,8.93,3,8.93H50.6c1.65,0,3-4,3-8.93S52.25,50.63,50.6,50.63Z" transform="translate(-7.84 -8.51)"/><ellipse class="cls-15" cx="39.89" cy="51.06" rx="2.98" ry="8.94"/><ellipse class="cls-14" cx="39.89" cy="51.06" rx="2.27" ry="6.82"/><ellipse class="cls-16" cx="39.89" cy="51.06" rx="1.68" ry="5.05"/><path class="cls-17" d="M47.73,59.57c0,1.9.41,3.52,1,4.08a10.26,10.26,0,0,0,.7-4.08,10.35,10.35,0,0,0-.7-4.09C48.14,56.05,47.73,57.66,47.73,59.57Z" transform="translate(-7.84 -8.51)"/><path d="M50.6,68.6H47.73c-1.73,0-3.08-4-3.08-9s1.35-9,3.08-9H50.6c1.73,0,3.08,4,3.08,9S52.33,68.6,50.6,68.6ZM47.73,50.72c-.74,0-1.48.93-2,2.56a20.67,20.67,0,0,0-.87,6.29,20.72,20.72,0,0,0,.87,6.29c.54,1.62,1.28,2.55,2,2.55H50.6c.74,0,1.48-.93,2-2.55a20.72,20.72,0,0,0,.87-6.29,20.67,20.67,0,0,0-.87-6.29c-.54-1.63-1.28-2.56-2-2.56Z" transform="translate(-7.84 -8.51)"/><path d="M47.73,68.6c-1.73,0-3.08-4-3.08-9s1.35-9,3.08-9,3.07,4,3.07,9S49.45,68.6,47.73,68.6Zm0-17.88c-.74,0-1.48.93-2,2.56a20.67,20.67,0,0,0-.87,6.29,20.72,20.72,0,0,0,.87,6.29c.54,1.62,1.28,2.55,2,2.55s1.47-.93,2-2.55a20.72,20.72,0,0,0,.87-6.29,20.67,20.67,0,0,0-.87-6.29C49.2,51.65,48.47,50.72,47.73,50.72Z" transform="translate(-7.84 -8.51)"/><path d="M47.73,66.48c-1.33,0-2.37-3-2.37-6.91s1-6.92,2.37-6.92,2.36,3,2.36,6.92S49.05,66.48,47.73,66.48Zm0-13.63c-1.18,0-2.18,3.07-2.18,6.72s1,6.72,2.18,6.72,2.17-3.08,2.17-6.72S48.91,52.85,47.73,52.85Z" transform="translate(-7.84 -8.51)"/><path d="M47.73,64.71c-1,0-1.78-2.26-1.78-5.14s.78-5.15,1.78-5.15,1.78,2.26,1.78,5.15S48.72,64.71,47.73,64.71Zm0-10.1c-.86,0-1.59,2.27-1.59,5s.73,4.95,1.59,4.95,1.58-2.27,1.58-4.95S48.59,54.61,47.73,54.61Z" transform="translate(-7.84 -8.51)"/><path class="cls-13" d="M49.25,57.76a1.58,1.58,0,0,1-.67-.37,1.13,1.13,0,0,1-.13-1.46c.28-.33.79-.45,1-.85a.92.92,0,0,0-.09-.82,2.48,2.48,0,0,0-1.9-1.1,14.4,14.4,0,0,0-2.27.08,6.82,6.82,0,0,1-4.81-1.44,1.27,1.27,0,0,1-.54-1s0,0-.05,0a1.49,1.49,0,0,0-.13,1.34,4.94,4.94,0,0,0,2.28,2.62,10.64,10.64,0,0,0,1.06.55h0a8,8,0,0,1-3.3-2,2.29,2.29,0,0,0,.44,1.22,5.24,5.24,0,0,0,2.32,1.87h-.06a4.9,4.9,0,0,1-2.1-.71,1.28,1.28,0,0,0,.51.94,3.89,3.89,0,0,0,3.12.92l.07,0a3.39,3.39,0,0,1-1.84,1,5,5,0,0,0,3.62,0l0,0a3.74,3.74,0,0,1-1.12,1.29c.07.14.27.15.43.13a15,15,0,0,0,2.4-.47h0L47,60s-.06.07,0,.1a.05.05,0,0,0,0,0,.94.94,0,0,0,.64-.06,4.16,4.16,0,0,0,1.33-.75A2.82,2.82,0,0,0,49.3,59C49.29,58.59,49.26,58.18,49.25,57.76Z" transform="translate(-7.84 -8.51)"/><path d="M47.18,60.28a.67.67,0,0,1-.24,0,.15.15,0,0,1-.11-.08.18.18,0,0,1,.06-.21l.24-.25a13.23,13.23,0,0,1-2.07.38c-.27,0-.45,0-.53-.18l0-.07.07,0a3.9,3.9,0,0,0,1-1.08,5,5,0,0,1-3.51,0l-.26-.1.26-.08a3.75,3.75,0,0,0,1.61-.8,3.94,3.94,0,0,1-3-1,1.31,1.31,0,0,1-.54-1v-.16l.14.09a4.84,4.84,0,0,0,1.51.61A5.24,5.24,0,0,1,40,54.6a2.3,2.3,0,0,1-.46-1.27v-.26l.17.2a5.63,5.63,0,0,0,1.61,1.24,4.66,4.66,0,0,1-1.77-2.3,1.61,1.61,0,0,1,.15-1.44.14.14,0,0,1,.12-.06h.06l0,.08v0a1.15,1.15,0,0,0,.52.92,6.65,6.65,0,0,0,4.73,1.41l.67,0a8,8,0,0,1,1.62,0,2.52,2.52,0,0,1,2,1.14,1,1,0,0,1,.1.91,1.37,1.37,0,0,1-.57.55,1.5,1.5,0,0,0-.41.32,1,1,0,0,0,.12,1.33,1.4,1.4,0,0,0,.62.35l.07,0v.07c0,.23,0,.47,0,.7s0,.36,0,.55v0l0,0a3.81,3.81,0,0,1-.37.34,4.32,4.32,0,0,1-1.37.77A1.19,1.19,0,0,1,47.18,60.28ZM47,60.07a.93.93,0,0,0,.54-.07,4,4,0,0,0,1.3-.74,3,3,0,0,0,.33-.29l0-.5c0-.21,0-.42,0-.63a1.65,1.65,0,0,1-.64-.39,1.21,1.21,0,0,1-.14-1.58,1.79,1.79,0,0,1,.46-.36,1.22,1.22,0,0,0,.49-.46.84.84,0,0,0-.09-.74,2.33,2.33,0,0,0-1.82-1.05,7.7,7.7,0,0,0-1.59,0l-.67.05a6.88,6.88,0,0,1-4.87-1.47,1.61,1.61,0,0,1-.56-.8,1.6,1.6,0,0,0,0,1.08A4.79,4.79,0,0,0,42,54.71a8.75,8.75,0,0,0,1,.55l.51.23-.63-.06a8.8,8.8,0,0,1-3.14-1.82,2.5,2.5,0,0,0,.4.88,5.07,5.07,0,0,0,2.28,1.84l.48.19h-.58a4.75,4.75,0,0,1-2-.63,1.35,1.35,0,0,0,.47.7,3.77,3.77,0,0,0,3,.9l.41-.22-.24.33a3,3,0,0,1-1.61,1,4.8,4.8,0,0,0,3.28-.13l0,0,.14.11,0,.07a3.71,3.71,0,0,1-1.07,1.26.47.47,0,0,0,.28,0,13.71,13.71,0,0,0,2.38-.46l.26-.08-.17.25Z" transform="translate(-7.84 -8.51)"/><path class="cls-18" d="M15.8,65.13a2.23,2.23,0,0,1-1.12-.55A2.56,2.56,0,0,1,14,63.47a2.42,2.42,0,0,1,0-1.57,2.22,2.22,0,0,1,.93-1.19L15.28,62a1.06,1.06,0,0,0-.31.54,1.24,1.24,0,0,0,.69,1.36,1.49,1.49,0,0,0,1.08,0,1.53,1.53,0,0,0,.87-.65,1.15,1.15,0,0,0,.08-1,1.2,1.2,0,0,0-.35-.53,1.13,1.13,0,0,0-.57-.24l-.42-1.25a2.14,2.14,0,0,1,1.45.39,2.38,2.38,0,0,1,.91,1.28,2.47,2.47,0,0,1,.11,1.31,2.26,2.26,0,0,1-.56,1.11,2.86,2.86,0,0,1-2.46.83Z" transform="translate(-7.84 -8.51)"/><path class="cls-18" d="M17.18,57.2a2.43,2.43,0,0,1-2,1.54,2.47,2.47,0,0,1-1.33-.15,2.38,2.38,0,0,1-1-.79,2.56,2.56,0,0,1-.5-1.21,2.59,2.59,0,0,1,.15-1.3,2.23,2.23,0,0,1,.76-1,2.65,2.65,0,0,1,2.57-.35,2.27,2.27,0,0,1,1,.77,2.63,2.63,0,0,1,.35,2.52Zm-1.45-2a1.7,1.7,0,0,0-2.06.28,1.21,1.21,0,0,0-.25,1,1.18,1.18,0,0,0,.51.88,1.48,1.48,0,0,0,1.08.21A1.47,1.47,0,0,0,16,57a1.19,1.19,0,0,0,.25-1A1.17,1.17,0,0,0,15.73,55.17Z" transform="translate(-7.84 -8.51)"/><path class="cls-18" d="M16.66,50.9a2.35,2.35,0,0,1-.94.88,2.5,2.5,0,0,1-1.31.28,2.61,2.61,0,0,1-1.28-.4,2.38,2.38,0,0,1-.85-1A2.53,2.53,0,0,1,12,49.42a2.62,2.62,0,0,1,.38-1.26,2.53,2.53,0,0,1,.94-.87A2.59,2.59,0,0,1,14.64,47a2.51,2.51,0,0,1,1.28.4,2.46,2.46,0,0,1,.86.95A2.63,2.63,0,0,1,17,49.65,2.55,2.55,0,0,1,16.66,50.9ZM15.6,48.64a1.48,1.48,0,0,0-1-.4,1.49,1.49,0,0,0-1.05.3,1.35,1.35,0,0,0-.09,1.89,1.46,1.46,0,0,0,1,.4,1.51,1.51,0,0,0,1.06-.3A1.24,1.24,0,0,0,16,49.6,1.21,1.21,0,0,0,15.6,48.64Z" transform="translate(-7.84 -8.51)"/><path class="cls-18" d="M15.63,41.69a1.45,1.45,0,0,1,.43.71,2.11,2.11,0,0,1,0,1l-.16.72,1.73.38-.26,1.17-4.8-1.05.42-1.9a2.21,2.21,0,0,1,.41-.93,1.4,1.4,0,0,1,.67-.47,1.63,1.63,0,0,1,.85,0A1.54,1.54,0,0,1,15.63,41.69Zm-.57,1.09a.61.61,0,0,0-.41-.26.59.59,0,0,0-.48.06.72.72,0,0,0-.27.47l-.14.63L15,44l.14-.64A.71.71,0,0,0,15.06,42.78Z" transform="translate(-7.84 -8.51)"/><path class="cls-18" d="M15.34,38.15l.93.35.57-1.5.86.33-.57,1.5,1,.38.64-1.69.9.34-1.07,2.81L14,38.93l1.06-2.82.9.34Z" transform="translate(-7.84 -8.51)"/><path class="cls-18" d="M21.56,34.22l-2.12,0-.14.25,1.62.91-.59,1L16.05,34l1-1.75a2.31,2.31,0,0,1,.66-.77,1.51,1.51,0,0,1,.79-.26,1.64,1.64,0,0,1,.79.21,1.44,1.44,0,0,1,.62.67,1.47,1.47,0,0,1,.08,1l2.25,0Zm-3-.18.37-.65a.71.71,0,0,0,.1-.51.61.61,0,0,0-.32-.36.6.6,0,0,0-.46-.08.7.7,0,0,0-.39.36l-.36.64Z" transform="translate(-7.84 -8.51)"/><path class="cls-18" d="M24.3,28.87,23.15,30.3l.49.77-.79,1-2.7-4.47L21,26.49,26,28.2l-.8,1Zm-.91-.34-1.78-.66,1,1.6Z" transform="translate(-7.84 -8.51)"/><path class="cls-18" d="M26.3,21.26l.63.71-1,.87,2.64,2.95-.89.8-2.64-2.95-1,.87-.64-.72Z" transform="translate(-7.84 -8.51)"/><path class="cls-18" d="M28.91,19.37l2.82,4-1,.69-2.82-4Z" transform="translate(-7.84 -8.51)"/><path class="cls-18" d="M35,15.93l.72,5.17-1.33.69-3.81-3.55,1.13-.59,2.79,2.72-.63-3.85Z" transform="translate(-7.84 -8.51)"/><path class="cls-18" d="M41.09,18.09l-1.76.54,0,.92-1.19.37.23-5.22,1.32-.41,3.16,4.16-1.21.38Zm-.57-.79L39.4,15.76l0,1.9Z" transform="translate(-7.84 -8.51)"/><path class="cls-18" d="M49.44,13.06a2.12,2.12,0,0,1,.94.81,2.4,2.4,0,0,1,.39,1.26,2.53,2.53,0,0,1-.24,1.3,2.18,2.18,0,0,1-.86.92,2.92,2.92,0,0,1-1.33.38l-1.84.1-.27-4.9,1.83-.11A2.91,2.91,0,0,1,49.44,13.06Zm-.2,3.21a1.42,1.42,0,0,0,.32-1.07,1.43,1.43,0,0,0-.44-1A1.4,1.4,0,0,0,48,13.85l-.56,0,.16,2.85.56,0A1.43,1.43,0,0,0,49.24,16.27Z" transform="translate(-7.84 -8.51)"/><path class="cls-18" d="M54,13.86l-.1,1,1.59.16-.09.92-1.59-.16-.11,1.07,1.81.18-.1,1-3-.3.48-4.89,3,.3-.09.95Z" transform="translate(-7.84 -8.51)"/><path class="cls-18" d="M64.16,15.18l-.29.92-1.24-.4-1.22,3.76-1.14-.37,1.22-3.76-1.24-.4.29-.91Z" transform="translate(-7.84 -8.51)"/><path class="cls-18" d="M66.19,21.53l-.07-2.12-.26-.13L65,20.94,64,20.4,66.17,16l1.79.91a2.12,2.12,0,0,1,.79.62,1.33,1.33,0,0,1,.3.77,1.57,1.57,0,0,1-.81,1.46,1.59,1.59,0,0,1-1,.12l.14,2.25Zm0-3,.66.33a.72.72,0,0,0,.52.08.65.65,0,0,0,.35-.33.61.61,0,0,0,0-.47.67.67,0,0,0-.37-.37l-.66-.33Z" transform="translate(-7.84 -8.51)"/><path class="cls-18" d="M71.66,24l-1.47-1.09-.75.52-1-.74,4.34-2.9,1.12.82-1.48,5-1-.75Zm.3-.93.58-1.81L71,22.38Z" transform="translate(-7.84 -8.51)"/><path class="cls-18" d="M76.41,29.74l-.83-.87.83-3.54-2.2,2.09-.83-.87L77,23.17l.82.87-.83,3.55,2.21-2.1.82.87Z" transform="translate(-7.84 -8.51)"/><path class="cls-18" d="M78,31.67a1.66,1.66,0,0,1,0-.86,1.36,1.36,0,0,1,.54-.68l.71,1.05a.64.64,0,0,0-.24.39.62.62,0,0,0,.11.43.64.64,0,0,0,.34.28.42.42,0,0,0,.37-.06A.41.41,0,0,0,80,32a.88.88,0,0,0,0-.36,3.81,3.81,0,0,0-.14-.52c-.09-.32-.15-.59-.19-.81a1.42,1.42,0,0,1,.08-.67,1.13,1.13,0,0,1,.5-.6,1.28,1.28,0,0,1,1.16-.19A2.38,2.38,0,0,1,82.89,31a1.4,1.4,0,0,1-.6,1l-.72-1.07a.56.56,0,0,0,.21-.36.68.68,0,0,0-.12-.42.51.51,0,0,0-.29-.22.44.44,0,0,0-.53.47,3.82,3.82,0,0,0,.15.74,6.17,6.17,0,0,1,.18.81,1.55,1.55,0,0,1-.07.67,1.13,1.13,0,0,1-.48.58,1.46,1.46,0,0,1-.75.25,1.48,1.48,0,0,1-.8-.21,2.15,2.15,0,0,1-.7-.68A2.74,2.74,0,0,1,78,31.67Z" transform="translate(-7.84 -8.51)"/><path class="cls-18" d="M84,37.5a1.48,1.48,0,0,1-.77-.3,2.14,2.14,0,0,1-.62-.82l-.32-.67-1.6.75-.5-1.09,4.44-2.09L85.44,35a2.39,2.39,0,0,1,.24,1,1.37,1.37,0,0,1-.25.78,1.61,1.61,0,0,1-.66.54A1.55,1.55,0,0,1,84,37.5Zm-.21-1.21a.62.62,0,0,0,.49,0,.6.6,0,0,0,.34-.34.7.7,0,0,0-.08-.53l-.27-.59-1.12.52.28.59A.76.76,0,0,0,83.77,36.29Z" transform="translate(-7.84 -8.51)"/><path class="cls-18" d="M82.81,41a2.51,2.51,0,0,1,.63-1.12,2.54,2.54,0,0,1,1.16-.67,2.44,2.44,0,0,1,1.34,0,2.39,2.39,0,0,1,1.11.64A2.58,2.58,0,0,1,87.69,41a2.54,2.54,0,0,1,0,1.31,2.44,2.44,0,0,1-.62,1.12,2.65,2.65,0,0,1-1.17.66,2.54,2.54,0,0,1-1.34,0,2.31,2.31,0,0,1-1.1-.64,2.49,2.49,0,0,1-.65-1.14A2.65,2.65,0,0,1,82.81,41Zm1.71,1.83a1.69,1.69,0,0,0,2-.55,1.22,1.22,0,0,0,.13-1,1.25,1.25,0,0,0-.63-.81A1.69,1.69,0,0,0,84,41a1.23,1.23,0,0,0-.13,1A1.26,1.26,0,0,0,84.52,42.85Z" transform="translate(-7.84 -8.51)"/><path class="cls-18" d="M84,48.68l1.75-1.19,0-.28-1.84.17-.12-1.19,4.9-.46.19,2a2.27,2.27,0,0,1-.11,1,1.36,1.36,0,0,1-.5.66,1.56,1.56,0,0,1-.77.28,1.44,1.44,0,0,1-.89-.19,1.48,1.48,0,0,1-.62-.76L84.12,50Zm2.57-1.55.07.74a.71.71,0,0,0,.2.47.71.71,0,0,0,.9-.08.72.72,0,0,0,.11-.51L87.77,47Z" transform="translate(-7.84 -8.51)"/><path class="cls-18" d="M88.82,55.36l-1-.06.08-1.3-4-.22.07-1.2,3.94.23.08-1.3,1,.05Z" transform="translate(-7.84 -8.51)"/><path class="cls-18" d="M86.74,61l-1-.27-.43,1.55-.89-.25.43-1.54-1-.29L83.37,62l-.93-.26.81-2.9L88,60.14l-.8,2.9-.93-.25Z" transform="translate(-7.84 -8.51)"/><path class="cls-18" d="M81.7,64a1.57,1.57,0,0,1,.75-.42,1.47,1.47,0,0,1,.87.09l-.52,1.17a.64.64,0,0,0-.81.76.4.4,0,0,0,.24.28.42.42,0,0,0,.33,0,1,1,0,0,0,.3-.2,5.27,5.27,0,0,0,.36-.39,5.42,5.42,0,0,1,.59-.59,1.31,1.31,0,0,1,.6-.3,1.22,1.22,0,0,1,.78.1,1.3,1.3,0,0,1,.78.89,2,2,0,0,1-.17,1.34,2,2,0,0,1-.89,1,1.36,1.36,0,0,1-1.2,0l.52-1.18a.55.55,0,0,0,.42,0,.65.65,0,0,0,.29-.32A.54.54,0,0,0,85,66a.41.41,0,0,0-.25-.25.4.4,0,0,0-.43,0,3.5,3.5,0,0,0-.55.52,8.13,8.13,0,0,1-.59.59,1.4,1.4,0,0,1-.6.29,1.12,1.12,0,0,1-.75-.09,1.37,1.37,0,0,1-.61-.5A1.51,1.51,0,0,1,81,65.8a2.18,2.18,0,0,1,.2-1A2.57,2.57,0,0,1,81.7,64Z" transform="translate(-7.84 -8.51)"/><path d="M45.05,31.75H44a.14.14,0,0,1-.14-.14.15.15,0,0,1,.14-.15h1.06a.15.15,0,0,1,.14.15A.14.14,0,0,1,45.05,31.75Z" transform="translate(-7.84 -8.51)"/><path d="M39.85,32.54H24.42l.11-.15a32.11,32.11,0,0,1,7-7.06l0,0h8.29Zm-15.06-.19H39.66V25.51h-8A31.87,31.87,0,0,0,24.79,32.35Z" transform="translate(-7.84 -8.51)"/><path d="M76.62,32.54H62.69V25.31h6.78l0,0a32.15,32.15,0,0,1,7,7.06Zm-13.73-.19H76.24a31.87,31.87,0,0,0-6.83-6.84H62.89Z" transform="translate(-7.84 -8.51)"/><polygon class="cls-19" points="15 65.68 15.85 64.19 16.52 65.77 18.21 66.12 16.91 67.24 17.1 68.95 15.63 68.06 14.06 68.78 14.45 67.1 13.29 65.83 15 65.68"/><polygon class="cls-19" points="69.74 65 70.59 63.51 71.26 65.09 72.94 65.44 71.64 66.56 71.84 68.27 70.36 67.39 68.8 68.1 69.19 66.42 68.03 65.15 69.74 65"/><path class="cls-6" d="M28.87,78.71l-.75.86L28,79.43c.19-.63.31-.92-.05-1.23l-.12-.11c-.12-.1-.16-.1-.25,0l-.93,1.07.21.18c.22.19.25.19.77-.1l.17.15-.93,1.08-.17-.15c.19-.5.22-.61,0-.8l-.21-.17-.76.88c-.18.21-.19.25.11.52l-.12.14-1.57-1.35.12-.14c.26.2.3.19.48,0l1.78-2c.18-.22.19-.27,0-.49l.12-.13Z" transform="translate(-7.84 -8.51)"/><path class="cls-6" d="M29,82.74c-.15.22-.11.31.15.49s.48.16,1.25-.32l.2.14-.77.94-2.5-1.73.11-.15c.27.18.31.16.47-.07l1.54-2.23c.16-.24.16-.29-.1-.48l.1-.15,1.7,1.17-.1.15c-.3-.19-.37-.19-.53,0Z" transform="translate(-7.84 -8.51)"/><path class="cls-6" d="M35.23,84.8a1.75,1.75,0,0,1-2.65.83,2,2,0,0,1,1.82-3.47A1.74,1.74,0,0,1,35.23,84.8Zm-2.55.64c.38.2.76-.17,1.34-1.27.38-.73.76-1.57.28-1.82-.29-.15-.67,0-1.34,1.27S32.34,85.26,32.68,85.44Z" transform="translate(-7.84 -8.51)"/><path class="cls-6" d="M37.25,87.05c-.09.27-.08.31.22.43l-.06.17L35.55,87l.06-.17c.31.09.35.07.44-.19L37,84.07c.09-.27.08-.32-.22-.44l.06-.17,2.11.77c.66.24,1.18.51.9,1.27-.16.45-.63.7-1.4.46v0a1.14,1.14,0,0,1,.67,1.27c-.11.67-.07.73.16.87l-.06.17-.68-.25c-.54-.19-.75-.42-.73-.87a6.39,6.39,0,0,1,.17-.87c0-.23,0-.36-.18-.41l-.09,0Zm.5-1.38.11,0c.41.15.62-.19.75-.55s.11-.78-.14-.87-.21,0-.26.13Z" transform="translate(-7.84 -8.51)"/><path class="cls-6" d="M44.7,85.71a1.91,1.91,0,0,1,1.37.66,1.82,1.82,0,0,1,.21,1.45,1.75,1.75,0,0,1-1.06,1.46,2.57,2.57,0,0,1-1.45.07L42,89.05l0-.18c.32,0,.35,0,.4-.27l.45-2.67c.05-.28,0-.32-.29-.39l0-.18Zm-1,3.17c0,.17,0,.24.2.27s.78-.09,1-1.52c.19-1.13,0-1.66-.49-1.74-.16,0-.22,0-.25.11Z" transform="translate(-7.84 -8.51)"/><path class="cls-6" d="M47.72,86.62c0-.28,0-.32-.33-.35v-.18l3.07.13,0,1.08h-.23c-.31-.83-.34-.85-.79-.87h-.2c-.16,0-.17,0-.18.19L49,87.87h.19c.35,0,.37,0,.58-.55H50l-.06,1.39h-.22c-.17-.56-.18-.58-.53-.6H49l-.05,1.21c0,.31,0,.32.41.34s.54,0,1-.92h.21L50.41,90l-3.17-.13v-.19c.33,0,.36,0,.37-.31Z" transform="translate(-7.84 -8.51)"/><path class="cls-6" d="M53.28,89.27c0,.28.11.31.43.29s.48-.16.77-1l.25,0,0,1.22-3,.21v-.19c.32,0,.34-.07.33-.35l-.19-2.71c0-.28-.05-.32-.37-.31l0-.17,2.06-.15v.18c-.36,0-.41.08-.39.36Z" transform="translate(-7.84 -8.51)"/><path class="cls-6" d="M60.38,85c-.23.07-.28.1-.31.35-.1.82-.26,2.53-.31,3.44l-.93.22c-.58-1-1.18-2-1.76-2.94-.15-.23-.2-.24-.43-.21l0-.17,2-.46,0,.18-.27.09c-.09,0-.07.12,0,.19.39.72.88,1.57,1.28,2.27h0c0-.84.09-2.12.08-2.56,0-.09,0-.17-.13-.16l-.31,0,0-.18,1.13-.26Z" transform="translate(-7.84 -8.51)"/><path class="cls-6" d="M63.14,87.83l-.06-.18.22-.12c.12-.06.1-.11,0-.26l-.48-.68L62,86.9c0,.33,0,.66.08.85s.06.21.18.18l.3-.08.06.18-1.11.38-.06-.17c.26-.12.28-.15.3-.37,0-.51,0-2.68-.1-3.47l.91-.31c.39.59,1.71,2.35,2.08,2.73.16.18.18.2.48.14l.06.17Zm-.46-1.45-.82-1.15h0c0,.36.06,1,.09,1.4Z" transform="translate(-7.84 -8.51)"/><path class="cls-6" d="M67.19,85.54c.12.25.22.25.5.11s.39-.33.34-1.24l.23-.11.43,1.14L66,86.76l-.08-.16c.28-.16.29-.2.17-.45L64.87,83.7c-.13-.25-.17-.27-.47-.14l-.07-.16,1.85-.9.08.16c-.32.16-.35.23-.23.48Z" transform="translate(-7.84 -8.51)"/><path class="cls-6" d="M70.82,83.52c.14.24.24.22.51.06s.34-.38.2-1.27l.21-.13.55,1.08-2.57,1.61-.1-.16c.27-.18.27-.22.12-.46L68.3,82c-.15-.24-.19-.26-.47-.1l-.1-.15,1.75-1.09.09.15c-.3.2-.32.26-.17.5Z" transform="translate(-7.84 -8.51)"/><path class="cls-6" d="M71.53,79.83c-.18-.22-.23-.23-.49,0l-.11-.14,2.41-1.91.67.85-.17.14c-.79-.42-.82-.43-1.18-.14l-.15.12c-.13.1-.12.13,0,.26l.79,1,.16-.13c.27-.21.27-.24.08-.79l.17-.13L74.56,80l-.17.13c-.5-.31-.53-.32-.8-.1l-.15.12.76,1c.19.25.22.23.52,0s.4-.36.19-1.38l.17-.13.67,1-2.49,2-.12-.15c.25-.2.25-.25.08-.47Z" transform="translate(-7.84 -8.51)"/></svg>